<?xml version="1.0" encoding="utf-8"?>
<!-- Generator: Adobe Illustrator 24.0.1, SVG Export Plug-In . SVG Version: 6.00 Build 0)  -->
<svg version="1.1" xmlns="http://www.w3.org/2000/svg" xmlns:xlink="http://www.w3.org/1999/xlink" x="0px" y="0px"
	 viewBox="0 0 500 500" style="enable-background:new 0 0 500 500;" xml:space="preserve">
<style type="text/css">
	.st0{fill:#F5F5F5;}
	.st1{fill:#E6E6E6;}
	.st2{fill:#37474F;}
	.st3{fill:#455A64;}
	.st4{fill:#27DEBF;}
	.st5{opacity:0.6;fill:#5E17EB;}
	.st6{opacity:0.5;fill:#5E17EB;}
	.st7{opacity:0.4;fill:#5E17EB;}
	.st8{opacity:0.15;}
	.st9{fill:#263238;}
	.st10{fill:#5E17EB;}
	.st11{fill:#E0E0E0;}
	.st12{fill:#EBEBEB;}
	.st13{fill:#FFFFFF;}
	.st14{opacity:0.5;}
	.st15{opacity:0.15;fill:#230077;}
	.st16{opacity:0.9;fill:#263238;}
	.st17{fill:none;stroke:#5E17EB;stroke-miterlimit:10;}
	.st18{opacity:0.6;fill:#FFFFFF;}
	.st19{opacity:0.6;}
	.st20{opacity:0.8;fill:#FFFFFF;}
	.st21{opacity:0.8;}
	.st22{opacity:0.9;}
	.st23{opacity:0.6;fill:#27DEBF;}
	.st24{opacity:0.7;}
	.st25{opacity:0.3;}
	.st26{opacity:0.25;}
	.st27{opacity:0.1;fill:#5E17EB;}
	.st28{fill:#FFA8A7;}
	.st29{fill:#FAFAFA;}
	.st30{opacity:0.4;}
	.st31{fill:#F28F8F;}
	.st32{fill:none;stroke:#263238;stroke-width:1.207;stroke-miterlimit:10;}
	.st33{fill:none;stroke:#263238;stroke-width:1.027;stroke-miterlimit:10;}
	.st34{opacity:0.75;fill:#8B5CFF;}
	.st35{opacity:0.1;fill:#27DEBF;}
	.st36{opacity:0.3;fill:#5E17EB;}
	.st37{opacity:0.2;}
	.st38{opacity:0.5;fill:#FFFFFF;}
	.st39{fill:#F0F0F0;}
</style>
<g id="Floor">
	<ellipse id="Floor_10_" class="st0" cx="249.9" cy="362.4" rx="224.2" ry="124.2"/>
</g>
<g id="Shadows_1_">
	<path id="Shadow_10_" class="st1" d="M451.7,343.1l-125,72.2c-0.9,0.5-2.4,0.5-3.4,0L143.1,311.3c-0.9-0.5-0.9-1.4,0-1.9l125-72.2
		c0.9-0.5,2.4-0.5,3.4,0l180.2,104.1C452.6,341.7,452.6,342.6,451.7,343.1z"/>
	<ellipse id="Shadow_9_" class="st1" cx="161.2" cy="412.4" rx="75.1" ry="43.3"/>
	<ellipse id="Shadow_8_" class="st1" cx="252.7" cy="362.1" rx="59.1" ry="34.1"/>
	<ellipse id="Shadow_5_" class="st1" cx="384.1" cy="407.9" rx="37.1" ry="21.4"/>
</g>
<g id="Desk_1_">
	<g id="Desk">
		<g id="Table_2_">
			<g id="XMLID_3957_">
				<path id="XMLID_3960_" class="st2" d="M329.4,286.4v110.9c0,0.7-0.5,1.6-1.1,1.9l-2.4,1.4c-0.6,0.4-1.6,0.4-2.2,0l-2.4-1.4
					c-0.6-0.4-1.1-1.2-1.1-1.9V286.4c0-0.7,0.5-1,1.1-0.6l2.4,1.4c0.6,0.4,1.6,0.4,2.2,0l2.4-1.4
					C328.9,285.4,329.4,285.7,329.4,286.4z"/>
				<path id="XMLID_3959_" class="st3" d="M323.7,400.6l-2.4-1.4c-0.6-0.4-1.1-1.2-1.1-1.9V286.4c0-0.7,0.5-1,1.1-0.6l2.4,1.4
					c0.6,0.4,1.1,1.2,1.1,1.9l0,110.9C324.8,400.7,324.3,401,323.7,400.6z"/>
			</g>
			<g id="XMLID_3954_">
				<path id="XMLID_3956_" class="st2" d="M430.9,227.7v110.9c0,0.7-0.5,1.6-1.1,1.9l-2.4,1.4c-0.6,0.4-1.6,0.4-2.2,0l-2.4-1.4
					c-0.6-0.4-1.1-1.2-1.1-1.9V227.7c0-0.7,0.5-1,1.1-0.6l2.4,1.4c0.6,0.4,1.6,0.4,2.2,0l2.4-1.4C430.4,226.7,430.9,227,430.9,227.7
					z"/>
				<path id="XMLID_3955_" class="st3" d="M425.2,342l-2.4-1.4c-0.6-0.4-1.1-1.2-1.1-1.9V227.7c0-0.7,0.5-1,1.1-0.6l2.4,1.4
					c0.6,0.4,1.1,1.2,1.1,1.9l0,110.9C426.3,342,425.8,342.3,425.2,342z"/>
			</g>
			<g id="XMLID_3951_">
				<path id="XMLID_3953_" class="st2" d="M192.7,207.5v110.9c0,0.7-0.5,1.6-1.1,1.9l-2.4,1.4c-0.6,0.4-1.6,0.4-2.2,0l-2.4-1.4
					c-0.6-0.4-1.1-1.2-1.1-1.9V207.5c0-0.7,0.5-1,1.1-0.6l2.4,1.4c0.6,0.4,1.6,0.4,2.2,0l2.4-1.4
					C192.2,206.5,192.7,206.8,192.7,207.5z"/>
				<path id="XMLID_3952_" class="st3" d="M187,321.7l-2.4-1.4c-0.6-0.4-1.1-1.2-1.1-1.9V207.5c0-0.7,0.5-1,1.1-0.6l2.4,1.4
					c0.6,0.4,1.1,1.2,1.1,1.9l0,110.9C188.1,321.8,187.6,322.1,187,321.7z"/>
			</g>
			<g id="XMLID_3938_">
				<g id="XMLID_3949_">
					<path id="XMLID_3950_" class="st4" d="M453,235.6v-0.8c0-1.3-0.9-2.9-2-3.5L272,128c-1.1-0.6-2.9-0.6-4.1,0l-110.1,63.6
						c-1.1,0.6-2,2.2-2,3.5v0.8c0,1.3,0.9,2.9,2,3.5l179,103.3c1.1,0.6,2.9,0.6,4.1,0L451,239.1C452.1,238.5,453,236.9,453,235.6z"
						/>
					<path id="XMLID_339_" class="st5" d="M453,235.6v-0.8c0-1.3-0.9-2.9-2-3.5L272,128c-1.1-0.6-2.9-0.6-4.1,0l-110.1,63.6
						c-1.1,0.6-2,2.2-2,3.5v0.8c0,1.3,0.9,2.9,2,3.5l179,103.3c1.1,0.6,2.9,0.6,4.1,0L451,239.1C452.1,238.5,453,236.9,453,235.6z"
						/>
				</g>
				<g id="XMLID_3947_">
					<path id="XMLID_3948_" class="st4" d="M338.8,297.7v5.5c0.7,0,1.5-0.2,2-0.5L451,239.1c1.1-0.7,2-2.2,2-3.5v-0.8
						c0-1.1-0.7-2.5-1.7-3.3c0.7,0.6,0.6,1.5-0.4,2.1l-110.1,63.6C340.3,297.6,339.6,297.7,338.8,297.7z"/>
					<path id="XMLID_3946_" class="st6" d="M338.8,297.7v5.5c0.7,0,1.5-0.2,2-0.5L451,239.1c1.1-0.7,2-2.2,2-3.5v-0.8
						c0-1.1-0.7-2.5-1.7-3.3c0.7,0.6,0.6,1.5-0.4,2.1l-110.1,63.6C340.3,297.6,339.6,297.7,338.8,297.7z"/>
				</g>
				<g>
					<path id="XMLID_3942_" class="st4" d="M451,233.6l-110.1,63.6c-1.1,0.6-2.9,0.6-4.1,0L157.8,194c-1.1-0.6-1.1-1.7,0-2.4
						L267.9,128c1.1-0.6,2.9-0.6,4.1,0l179,103.3C452.1,231.9,452.1,233,451,233.6z"/>
					<path id="XMLID_337_" class="st7" d="M451,233.6l-110.1,63.6c-1.1,0.6-2.9,0.6-4.1,0L157.8,194c-1.1-0.6-1.1-1.7,0-2.4
						L267.9,128c1.1-0.6,2.9-0.6,4.1,0l179,103.3C452.1,231.9,452.1,233,451,233.6z"/>
				</g>
			</g>
		</g>
		<g id="Keyboard_1_">
			<path id="Shadow_30_" class="st8" d="M325.3,232.2l-26.1,15.1c-0.8,0.5-2.1,0.5-2.9,0l-77.1-44.4c-0.8-0.5-0.8-1.2,0-1.7
				l26.1-15.1c0.8-0.5,2.1-0.5,2.9,0l77.1,44.4C326.1,231,326.1,231.8,325.3,232.2z"/>
			<g id="Keyboard_4_">
				<g id="XMLID_3931_">
					<path id="XMLID_3936_" class="st9" d="M220.8,198.5c0-0.3,0.2-0.6,0.6-0.8l24.5-14.1c0.8-0.5,2.1-0.5,2.9,0l74.8,43.3
						c0.4,0.2,0.6,0.5,0.6,0.8c0,0.3,0,2.3,0,2.6c0,0.3-0.2,0.6-0.6,0.8l-24.5,14.1c-0.8,0.5-2.1,0.5-2.9,0L221.4,202
						c-0.4-0.2-0.6-0.5-0.6-0.8C220.8,200.9,220.8,198.8,220.8,198.5z"/>
					<path id="XMLID_3935_" class="st2" d="M299.1,242.6l24.5-14.1c0.8-0.5,0.8-1.2,0-1.7l-74.8-43.3c-0.8-0.5-2.1-0.5-2.9,0
						l-24.5,14.1c-0.8,0.5-0.8,1.2,0,1.7l74.8,43.2C297,243,298.3,243,299.1,242.6z"/>
					<path id="XMLID_3933_" class="st9" d="M297.7,242.9v2.6c0.5,0,1-0.1,1.4-0.3l24.5-14.1c0.4-0.2,0.6-0.5,0.6-0.8v-2.6
						c0,0.3-0.2,0.6-0.6,0.8l-24.5,14.1C298.7,242.8,298.2,242.9,297.7,242.9z"/>
				</g>
				<path id="XMLID_3768_" class="st10" d="M225.3,198.7C225.3,198.7,225.3,198.7,225.3,198.7l2.4-1.4l3.3,1.9l-2.4,1.4L225.3,198.7
					L225.3,198.7z M229.1,196.5C229.1,196.5,229.1,196.5,229.1,196.5l2.4-1.4l2.6,1.5l-2.4,1.4L229.1,196.5L229.1,196.5z
					 M229.9,201.4C229.9,201.4,229.9,201.3,229.9,201.4l2.4-1.4l2.6,1.5l-2.4,1.4L229.9,201.4L229.9,201.4z M232.9,194.3
					C232.9,194.3,232.9,194.3,232.9,194.3l2.4-1.4l4.2,2.4l-2.4,1.4L232.9,194.3L232.9,194.3z M233,198.8
					C233,198.8,233,198.7,233,198.8l2.4-1.4l2.1,1.2l-2.4,1.4L233,198.8L233,198.8z M233.8,203.6
					C233.8,203.6,233.8,203.6,233.8,203.6l2.4-1.4l2.6,1.5l-2.4,1.4L233.8,203.6L233.8,203.6z M236.4,200.7
					C236.4,200.7,236.4,200.7,236.4,200.7l2.4-1.4l2.1,1.2l-2.4,1.4L236.4,200.7L236.4,200.7z M236.7,192.1
					C236.7,192.1,236.7,192.1,236.7,192.1l2.4-1.4l3.3,1.9l-2.4,1.4L236.7,192.1L236.7,192.1z M237.7,205.9
					C237.7,205.9,237.7,205.8,237.7,205.9l2.4-1.4l18.7,10.8l-2.4,1.4L237.7,205.9L237.7,205.9z M238.4,197.5
					C238.4,197.5,238.4,197.5,238.4,197.5l2.4-1.4l2.1,1.2l-2.4,1.4L238.4,197.5L238.4,197.5z M239.7,202.7
					C239.7,202.6,239.7,202.6,239.7,202.7l2.4-1.4l2.1,1.2l-2.4,1.4L239.7,202.7L239.7,202.7z M240.5,190
					C240.5,189.9,240.5,189.9,240.5,190l2.4-1.4l2.1,1.2l-2.4,1.4L240.5,190L240.5,190z M241.3,194.8
					C241.3,194.8,241.3,194.8,241.3,194.8l2.4-1.4l2.1,1.2l-2.4,1.4L241.3,194.8L241.3,194.8z M241.7,199.4
					C241.7,199.4,241.8,199.4,241.7,199.4l2.4-1.4l2.1,1.2l-2.4,1.4L241.7,199.4L241.7,199.4z M243.1,204.6
					C243.1,204.6,243.1,204.6,243.1,204.6l2.4-1.4l2.1,1.2l-2.4,1.4L243.1,204.6L243.1,204.6z M243.9,191.9
					C243.9,191.9,243.9,191.9,243.9,191.9l2.4-1.4l2.1,1.2l-2.4,1.4L243.9,191.9L243.9,191.9z M244.7,196.7
					C244.7,196.7,244.7,196.7,244.7,196.7l2.4-1.4l2.1,1.2l-2.4,1.4L244.7,196.7L244.7,196.7z M245.1,201.4
					C245.1,201.4,245.1,201.4,245.1,201.4l2.4-1.4l2.1,1.2l-2.4,1.4L245.1,201.4L245.1,201.4z M245.1,187.3
					C245.1,187.3,245.1,187.3,245.1,187.3l2.4-1.4l2.6,1.5l-2.4,1.4L245.1,187.3L245.1,187.3z M246.4,206.5
					C246.4,206.5,246.5,206.5,246.4,206.5l2.4-1.4l2.1,1.2l-2.4,1.4L246.4,206.5L246.4,206.5z M247.2,193.8
					C247.2,193.8,247.2,193.8,247.2,193.8l2.4-1.4l2.1,1.2l-2.4,1.4L247.2,193.8L247.2,193.8z M248,198.7
					C248,198.7,248,198.7,248,198.7l2.4-1.4l2.1,1.2l-2.4,1.4L248,198.7L248,198.7z M248.5,203.3
					C248.5,203.3,248.5,203.3,248.5,203.3l2.4-1.4l2.1,1.2l-2.4,1.4L248.5,203.3L248.5,203.3z M249.8,208.5
					C249.8,208.5,249.8,208.4,249.8,208.5l2.4-1.4l2.1,1.2l-2.4,1.4L249.8,208.5L249.8,208.5z M250.5,190.4
					C250.5,190.4,250.5,190.4,250.5,190.4l2.4-1.4l2.1,1.2l-2.4,1.4L250.5,190.4L250.5,190.4z M250.6,195.8
					C250.6,195.8,250.6,195.7,250.6,195.8l2.4-1.4l2.1,1.2l-2.4,1.4L250.6,195.8L250.6,195.8z M251.4,200.6
					C251.4,200.6,251.4,200.6,251.4,200.6l2.4-1.4l2.1,1.2l-2.4,1.4L251.4,200.6L251.4,200.6z M251.8,205.3
					C251.8,205.2,251.8,205.2,251.8,205.3l2.4-1.4l2.1,1.2l-2.4,1.4L251.8,205.3L251.8,205.3z M253.2,210.4
					C253.2,210.4,253.2,210.4,253.2,210.4l2.4-1.4l2.1,1.2l-2.4,1.4L253.2,210.4L253.2,210.4z M253.8,192.3
					C253.8,192.3,253.8,192.3,253.8,192.3l2.4-1.4l2.1,1.2l-2.4,1.4L253.8,192.3L253.8,192.3z M253.9,197.7
					C253.9,197.7,254,197.7,253.9,197.7l2.4-1.4l2.1,1.2l-2.4,1.4L253.9,197.7L253.9,197.7z M254.7,202.6
					C254.7,202.5,254.8,202.5,254.7,202.6l2.4-1.4l2.1,1.2l-2.4,1.4L254.7,202.6L254.7,202.6z M255.2,207.2
					C255.2,207.2,255.2,207.2,255.2,207.2l2.4-1.4l2.1,1.2l-2.4,1.4L255.2,207.2L255.2,207.2z M256.5,212.4
					C256.5,212.3,256.5,212.3,256.5,212.4l2.4-1.4l2.1,1.2l-2.4,1.4L256.5,212.4L256.5,212.4z M257.2,194.3
					C257.2,194.2,257.2,194.2,257.2,194.3l2.4-1.4l2.1,1.2l-2.4,1.4L257.2,194.3L257.2,194.3z M257.3,199.7
					C257.3,199.6,257.3,199.6,257.3,199.7l2.4-1.4l2.1,1.2l-2.4,1.4L257.3,199.7L257.3,199.7z M257.7,217.4
					C257.7,217.4,257.7,217.4,257.7,217.4l2.4-1.4l2.6,1.5l-2.4,1.4L257.7,217.4L257.7,217.4z M258.1,204.5
					C258.1,204.5,258.1,204.5,258.1,204.5l2.4-1.4l2.1,1.2l-2.4,1.4L258.1,204.5L258.1,204.5z M258.5,209.1
					C258.5,209.1,258.6,209.1,258.5,209.1l2.4-1.4l2.1,1.2l-2.4,1.4L258.5,209.1L258.5,209.1z M259.9,214.3
					C259.9,214.3,259.9,214.3,259.9,214.3l2.4-1.4l2.1,1.2l-2.4,1.4L259.9,214.3L259.9,214.3z M260.5,196.2
					C260.5,196.2,260.6,196.2,260.5,196.2l2.4-1.4l2.1,1.2l-2.4,1.4L260.5,196.2L260.5,196.2z M260.7,201.6
					C260.7,201.6,260.7,201.6,260.7,201.6l2.4-1.4l2.1,1.2l-2.4,1.4L260.7,201.6L260.7,201.6z M261.5,206.4
					C261.5,206.4,261.5,206.4,261.5,206.4l2.4-1.4l2.1,1.2l-2.4,1.4L261.5,206.4L261.5,206.4z M261.6,219.7
					C261.6,219.6,261.6,219.6,261.6,219.7l2.4-1.4l2.6,1.5l-2.4,1.4L261.6,219.7L261.6,219.7z M261.9,211.1
					C261.9,211.1,261.9,211.1,261.9,211.1l2.4-1.4l2.1,1.2l-2.4,1.4L261.9,211.1L261.9,211.1z M263.2,216.2
					C263.2,216.2,263.3,216.2,263.2,216.2l2.4-1.4l2.1,1.2l-2.4,1.4L263.2,216.2L263.2,216.2z M264,203.5
					C264,203.5,264,203.5,264,203.5l2.4-1.4l2.1,1.2l-2.4,1.4L264,203.5L264,203.5z M264.8,208.4
					C264.8,208.4,264.8,208.4,264.8,208.4l2.4-1.4l2.1,1.2l-2.4,1.4L264.8,208.4L264.8,208.4z M265.3,213
					C265.3,213,265.3,213,265.3,213l2.4-1.4l2.1,1.2l-2.4,1.4L265.3,213L265.3,213z M265.4,199C265.4,199,265.4,199,265.4,199
					l2.4-1.4l2.1,1.2l-2.4,1.4L265.4,199L265.4,199z M265.5,221.9C265.5,221.9,265.5,221.9,265.5,221.9l2.4-1.4l2.6,1.5l-2.4,1.4
					L265.5,221.9L265.5,221.9z M266.6,218.2C266.6,218.2,266.6,218.1,266.6,218.2l2.4-1.4l2.1,1.2l-2.4,1.4L266.6,218.2L266.6,218.2
					z M267.4,205.5C267.4,205.5,267.4,205.4,267.4,205.5l2.4-1.4l2.1,1.2l-2.4,1.4L267.4,205.5L267.4,205.5z M268.2,210.3
					C268.2,210.3,268.2,210.3,268.2,210.3l2.4-1.4l2.1,1.2l-2.4,1.4L268.2,210.3L268.2,210.3z M268.6,215
					C268.6,214.9,268.6,214.9,268.6,215l2.4-1.4l2.1,1.2l-2.4,1.4L268.6,215L268.6,215z M268.7,200.9
					C268.7,200.9,268.7,200.9,268.7,200.9l2.4-1.4l2.1,1.2l-2.4,1.4L268.7,200.9L268.7,200.9z M269.3,224.1
					C269.3,224.1,269.4,224.1,269.3,224.1l2.4-1.4l3.3,1.9l-2.4,1.4L269.3,224.1L269.3,224.1z M270,220.1
					C270,220.1,270,220.1,270,220.1l2.4-1.4l6.5,3.7l-2.4,1.4L270,220.1L270,220.1z M270.7,207.4
					C270.7,207.4,270.8,207.4,270.7,207.4l2.4-1.4l2.1,1.2l-2.4,1.4L270.7,207.4L270.7,207.4z M271.5,212.3
					C271.5,212.2,271.6,212.2,271.5,212.3l2.4-1.4l2.1,1.2l-2.4,1.4L271.5,212.3L271.5,212.3z M272,216.9
					C272,216.9,272,216.9,272,216.9l2.4-1.4l2.1,1.2l-2.4,1.4L272,216.9L272,216.9z M272.1,202.9
					C272.1,202.8,272.1,202.8,272.1,202.9l2.4-1.4l2.1,1.2l-2.4,1.4L272.1,202.9L272.1,202.9z M274.1,209.4
					C274.1,209.3,274.1,209.3,274.1,209.4l2.4-1.4l2.1,1.2l-2.4,1.4L274.1,209.4L274.1,209.4z M274.7,227.2
					C274.7,227.2,274.7,227.2,274.7,227.2l2.4-1.4l2.1,1.2l-2.4,1.4L274.7,227.2L274.7,227.2z M274.9,214.2
					C274.9,214.2,274.9,214.2,274.9,214.2l2.4-1.4l2.1,1.2l-2.4,1.4L274.9,214.2L274.9,214.2z M275.3,218.8
					C275.3,218.8,275.4,218.8,275.3,218.8l2.4-1.4l1.9,1.1c0.1,0.1,0.4,0.1,0.6,0.1c0.3,0,0.5,0,0.6-0.1l3.2-1.8l2.4,1.4l-6.2,3.6
					L275.3,218.8L275.3,218.8z M275.4,204.8C275.4,204.8,275.5,204.8,275.4,204.8l2.4-1.4l2.1,1.2l-2.4,1.4L275.4,204.8L275.4,204.8
					z M277.5,211.3C277.5,211.3,277.5,211.3,277.5,211.3l2.4-1.4l2.1,1.2l-2.4,1.4L277.5,211.3L277.5,211.3z M278,229.2
					C278,229.1,278,229.1,278,229.2l2.4-1.4l2.1,1.2l-2.4,1.4L278,229.2L278,229.2z M278.3,216.1
					C278.3,216.1,278.3,216.1,278.3,216.1l2.4-1.4l2.1,1.2l-2.4,1.4L278.3,216.1L278.3,216.1z M280.3,207.6
					C280.3,207.6,280.3,207.6,280.3,207.6l2.4-1.4l2.1,1.2l-2.4,1.4L280.3,207.6L280.3,207.6z M280.8,213.2
					C280.8,213.2,280.8,213.2,280.8,213.2l2.4-1.4l2.1,1.2l-2.4,1.4L280.8,213.2L280.8,213.2z M281.4,231.1
					C281.4,231.1,281.4,231.1,281.4,231.1l2.4-1.4l2.1,1.2l-2.4,1.4L281.4,231.1L281.4,231.1z M281.8,227
					C281.8,226.9,281.8,226.9,281.8,227l2.4-1.4l2.1,1.2l-2.4,1.4L281.8,227L281.8,227z M283.6,209.5
					C283.6,209.5,283.6,209.5,283.6,209.5l2.4-1.4l2.1,1.2l-2.4,1.4L283.6,209.5L283.6,209.5z M284.2,215.2
					C284.2,215.2,284.2,215.1,284.2,215.2l2.4-1.4l3.6,2.1l-2.4,1.4L284.2,215.2L284.2,215.2z M285.4,233.4
					C285.4,233.4,285.5,233.4,285.4,233.4l2.4-1.4l5.4,3.1l-2.4,1.4L285.4,233.4L285.4,233.4z M286,220.6
					C286,220.6,286.1,220.6,286,220.6l2.4-1.4l2.1,1.2l-2.4,1.4L286,220.6L286,220.6z M287,211.5C287,211.5,287,211.4,287,211.5
					l2.4-1.4l2.1,1.2l-2.4,1.4L287,211.5L287,211.5z M289.2,231.2C289.2,231.2,289.2,231.2,289.2,231.2l2.4-1.4l2.1,1.2l-2.4,1.4
					L289.2,231.2L289.2,231.2z M289.4,222.6C289.4,222.6,289.4,222.5,289.4,222.6l2.4-1.4l2.1,1.2l-2.4,1.4L289.4,222.6L289.4,222.6
					z M289.8,218.4C289.8,218.4,289.9,218.4,289.8,218.4l2.4-1.4l2.1,1.2l-2.4,1.4L289.8,218.4L289.8,218.4z M290.3,213.4
					C290.3,213.4,290.4,213.4,290.3,213.4l2.4-1.4l2.1,1.2l-2.4,1.4L290.3,213.4L290.3,213.4z M292.2,237.3
					C292.2,237.3,292.2,237.3,292.2,237.3l2.4-1.4l2.1,1.2l-2.4,1.4L292.2,237.3L292.2,237.3z M292.6,233.2
					C292.6,233.2,292.6,233.2,292.6,233.2l2.4-1.4l2.1,1.2l-2.4,1.4L292.6,233.2L292.6,233.2z M292.8,224.5
					C292.8,224.5,292.8,224.5,292.8,224.5l2.4-1.4l2.1,1.2l-2.4,1.4L292.8,224.5L292.8,224.5z M293,229.1C293,229,293,229,293,229.1
					l2.4-1.4l2.1,1.2l-2.4,1.4L293,229.1L293,229.1z M293.2,220.4C293.2,220.4,293.2,220.4,293.2,220.4l2.4-1.4l2.1,1.2l-2.4,1.4
					L293.2,220.4L293.2,220.4z M294.5,215.8C294.5,215.8,294.5,215.8,294.5,215.8l2.4-1.4l2.1,1.2l-2.4,1.4L294.5,215.8L294.5,215.8
					z M295.5,239.3C295.5,239.2,295.5,239.2,295.5,239.3l6.2-3.6l2.1,1.2l-6.2,3.6L295.5,239.3L295.5,239.3z M296,235.1
					C296,235.1,296,235.1,296,235.1l2.4-1.4l2.1,1.2l-2.4,1.4L296,235.1L296,235.1z M296.4,231C296.4,231,296.4,231,296.4,231
					l2.4-1.4l2.1,1.2l-2.4,1.4L296.4,231L296.4,231z M296.6,222.3C296.6,222.3,296.6,222.3,296.6,222.3l2.4-1.4l2.1,1.2l-2.4,1.4
					L296.6,222.3L296.6,222.3z M296.8,226.9C296.8,226.8,296.8,226.8,296.8,226.9l2.4-1.4l2.1,1.2l-2.4,1.4L296.8,226.9L296.8,226.9
					z M297.8,217.7C297.8,217.7,297.8,217.7,297.8,217.7l2.4-1.4l2.1,1.2l-2.4,1.4L297.8,217.7L297.8,217.7z M299.8,232.9
					C299.8,232.9,299.8,232.9,299.8,232.9l2.4-1.4l2.1,1.2l-2.4,1.4L299.8,232.9L299.8,232.9z M300.2,228.8
					C300.2,228.8,300.2,228.8,300.2,228.8l2.4-1.4l2.1,1.2l-2.4,1.4L300.2,228.8L300.2,228.8z M300.6,224.7
					C300.6,224.7,300.6,224.6,300.6,224.7l2.4-1.4l2.1,1.2l-2.4,1.4L300.6,224.7L300.6,224.7z M301.2,219.7
					C301.2,219.6,301.2,219.6,301.2,219.7l2.4-1.4l2.1,1.2l-2.4,1.4L301.2,219.7L301.2,219.7z M303.1,234.9
					C303.1,234.9,303.1,234.8,303.1,234.9l6.2-3.6l2.1,1.2l-6.2,3.6L303.1,234.9L303.1,234.9z M303.6,230.7
					C303.6,230.7,303.6,230.7,303.6,230.7l2.4-1.4l2.1,1.2l-2.4,1.4L303.6,230.7L303.6,230.7z M304,226.6
					C304,226.6,304,226.6,304,226.6l2.4-1.4l2.1,1.2l-2.4,1.4L304,226.6L304,226.6z M306.2,221.4
					C306.2,221.4,306.2,221.4,306.2,221.4l1-0.6l2.1,1.2l-1.1,0.7L306.2,221.4L306.2,221.4z M307.4,228.5
					C307.4,228.5,307.4,228.5,307.4,228.5l2.4-1.4l2.1,1.2l-2.4,1.4L307.4,228.5L307.4,228.5z M309.6,223.4
					C309.6,223.4,309.6,223.4,309.6,223.4l1-0.6l2.1,1.2l-1.1,0.7L309.6,223.4L309.6,223.4z M310.7,230.5
					C310.7,230.5,310.7,230.5,310.7,230.5l2.4-1.4l2.1,1.2l-2.4,1.4L310.7,230.5L310.7,230.5z M312.9,225.3
					C312.9,225.3,312.9,225.3,312.9,225.3l1-0.6l2.1,1.2l-1.1,0.7L312.9,225.3L312.9,225.3z M316.3,227.3
					C316.3,227.2,316.3,227.2,316.3,227.3l1-0.6l2.1,1.2l-1.1,0.7L316.3,227.3L316.3,227.3z"/>
			</g>
		</g>
		<g id="Device">
			<polygon id="Shadow_29_" class="st8" points="385.6,235.2 408.5,221.9 293.8,155.7 270.8,168.9 			"/>
			<g id="Monitor_2_">
				<g id="XMLID_3761_">
					<g id="XMLID_3766_">
						<path id="XMLID_3767_" class="st1" d="M320.6,213.6l-16.4-9.5c-1.7-1-2.5-2.3-2.5-3.5c0-1.3,0-2.3,0-2.3l15.4-8.8
							c0.9-0.5,1.6-1.8,1.6-2.8v-20.2l28.6,16.5l0,20.2c0,1-0.7,2.3-1.6,2.8l-12.9,7.5C329.4,215.5,324,215.5,320.6,213.6z"/>
					</g>
					<path id="XMLID_3765_" class="st11" d="M340.5,206.8v2.3l5.2-3c0.9-0.5,1.6-1.8,1.6-2.8v-20.2l-5.5-3.1
						c-0.1,1.4-0.2,2.8-0.3,4.2l3.8,2.2v15.8c0,1-0.7,2.3-1.6,2.8L340.5,206.8z"/>
					<path id="XMLID_3764_" class="st0" d="M345.4,202.1c0,1-0.7,2.3-1.6,2.8l-10.9,6.4c-3.4,2-8.9,2-12.2,0l-16.4-9.5
						c-3.4-1.9-3.4-5.1,0-7.1l10.9-6.4c0.9-0.5,1.6-1.8,1.6-2.8l0-15.8l28.6,16.5V202.1z"/>
					<path id="XMLID_3763_" class="st12" d="M311.8,190.3L311.8,190.3l3.3-1.9c0.9-0.5,1.6-1.8,1.6-2.8v-15.8l28.6,16.5v15.8
						c0,1-0.7,2.3-1.6,2.8l-3.3,1.9L311.8,190.3z"/>
					<path id="XMLID_3762_" class="st12" d="M301.7,198.3c0,0,0,1,0,2.3c0,1.3,0.8,2.6,2.5,3.5l16.4,9.5c1.6,0.9,3.7,1.4,5.8,1.5
						v-2.3c-2.1,0-4.2-0.5-5.8-1.5l-16.4-9.5C302.5,200.9,301.7,199.6,301.7,198.3z"/>
				</g>
				<path id="XMLID_3760_" class="st3" d="M391.3,223.9c-1.1,0.6-2.8,0.6-4-0.1c-14.1-8.1-96.6-55.8-110.7-63.9
					c-1.1-0.7-2-2.2-2-3.5V59.5c0-1.3,0.9-2.8,1.9-3.5c1.1-0.6,2.8-0.6,4,0.1l110.7,63.9c1.1,0.7,2,2.2,2,3.5l0,96.9
					C393.2,221.8,392.4,223.3,391.3,223.9z"/>
				<path id="XMLID_3758_" class="st2" d="M387.4,223.9L276.7,160c-1.1-0.7-2-2.2-2-3.5V59.5c0-1.3,0.9-1.8,2-1.2l110.7,63.9
					c1.1,0.7,2,2.2,2,3.5l0,96.9C389.4,224,388.5,224.5,387.4,223.9z"/>
				<path id="XMLID_3757_" class="st11" d="M387.7,224.3c1.1,0.5,2.7,0.5,3.7-0.1c1.1-0.6,1.9-2.2,1.9-3.5v-10.9l-3.8,2.2v10.9
					C389.4,224.1,388.7,224.7,387.7,224.3z"/>
				<path id="XMLID_3756_" class="st13" d="M389.4,212l0,10.9c0,1.3-0.9,1.8-2,1.2l-110.7-63.9c-1.1-0.7-2-2.2-2-3.5v-10.9
					L389.4,212z"/>
				<path id="XMLID_3755_" class="st4" d="M385.6,203.7l0-76.7c0-0.8-0.5-1.7-1.2-2.1L279.7,64.5c-0.7-0.4-1.2-0.1-1.2,0.7l0,76.7
					c0,0.8,0.5,1.7,1.2,2.1l104.7,60.4C385,204.8,385.6,204.5,385.6,203.7z"/>
				<path id="XMLID_3754_" class="st6" d="M385.6,203.7l0-76.7c0-0.8-0.5-1.7-1.2-2.1L279.7,64.5c-0.7-0.4-1.2-0.1-1.2,0.7l0,76.7
					c0,0.8,0.5,1.7,1.2,2.1l104.7,60.4C385,204.8,385.6,204.5,385.6,203.7z"/>
				<path id="XMLID_3658_" class="st3" d="M332,183.1c1.1,0.6,1.9,2.1,1.9,3.3c0,1.2-0.9,1.7-1.9,1.1c-1.1-0.6-1.9-2.1-1.9-3.3
					C330.1,183,331,182.5,332,183.1z"/>
				<path id="XMLID_3657_" class="st9" d="M388.8,123.8c0.4,0.6,0.6,1.4,0.6,2V212l3.8-2.2v-86.2c0-0.6-0.2-1.4-0.6-2L388.8,123.8z"
					/>
			</g>
		</g>
		<g id="Window_1_">
			<g id="Window_3_">
				<path class="st3" d="M292.8,39.5c0-0.1,0-0.1,0-0.2c0,0,0,0,0,0c0-0.1,0-0.1,0-0.2c0-0.1,0.1-0.2,0.1-0.2c0,0,0-0.1,0.1-0.1
					c0,0,0-0.1,0.1-0.1c0-0.1,0.1-0.1,0.1-0.1c0,0,0,0,0,0c0.1,0,0.1-0.1,0.2-0.1c0.4-0.2,0.8-0.1,1.3,0.2l129.2,74.5
					c1.1,0.6,2,2.1,2,3.4v93.5c0,0,0,0,0,0v0.4c0,0.5-0.3,1-0.7,1.2c0,0-0.1,0-0.1,0.1c0,0-0.1,0-0.1,0.1c-0.1,0-0.1,0-0.2,0.1
					c-0.1,0-0.2,0-0.2,0c-0.2,0-0.4-0.1-0.6-0.2l-0.1,0c0,0,0,0,0,0l-1.9-1.1l-127.3-73.5c-1.1-0.6-2-2.1-2-3.4v-94
					C292.7,39.7,292.7,39.6,292.8,39.5z"/>
				<g id="XMLID_3010_">
					<g id="XMLID_3044_">
						<path class="st10" d="M293.4,38.5c0.4-0.2,0.8-0.1,1.3,0.2l129.2,74.5c1.1,0.6,2,2.1,2,3.4v6.4l2.5-1.5v-6.3
							c0-1.2-0.9-2.8-1.9-3.4L297.2,37.2c-0.6-0.3-1.1-0.3-1.4-0.1C295.4,37.3,293.8,38.3,293.4,38.5z"/>
					</g>
					<path id="XMLID_3036_" class="st10" d="M292.7,39.8c0-1.2,0.9-1.7,1.9-1.1l129.2,74.5c1.1,0.6,2,2.1,2,3.4l0,6.4L292.7,46.2
						V39.8z"/>
					<g id="XMLID_3027_" class="st14">
						<path class="st10" d="M294.7,38.6l129.2,74.5c0.5,0.3,1,0.8,1.4,1.4l2.5-1.4c-0.3-0.6-0.8-1.1-1.4-1.4L297.2,37.2
							c-0.6-0.3-1.1-0.3-1.4-0.1c-0.3,0.2-2,1.1-2.4,1.4C293.7,38.3,294.2,38.4,294.7,38.6z"/>
					</g>
					<path id="XMLID_3011_" class="st15" d="M428.3,121.5l0-6.3c0-0.6-0.2-1.3-0.6-2l-2.5,1.4c0.4,0.6,0.6,1.3,0.6,1.9v6.4
						L428.3,121.5z"/>
				</g>
				<g id="XMLID_3000_">
					<path id="XMLID_3009_" class="st3" d="M421.4,114.5c0.6,0.4,1.1,1.4,1.1,2.3s-0.5,1.4-1.1,1.1c-0.6-0.4-1.1-1.4-1.1-2.3
						C420.3,114.7,420.8,114.2,421.4,114.5z"/>
					<path id="XMLID_3002_" class="st3" d="M417.4,112.2c0.6,0.4,1.1,1.4,1.1,2.3s-0.5,1.4-1.1,1.1c-0.6-0.4-1.1-1.4-1.1-2.3
						C416.3,112.4,416.8,111.9,417.4,112.2z"/>
					<path id="XMLID_3001_" class="st3" d="M413.5,110c0.6,0.4,1.1,1.4,1.1,2.3c0,0.9-0.5,1.4-1.1,1.1c-0.6-0.4-1.1-1.4-1.1-2.3
						S412.9,109.6,413.5,110z"/>
				</g>
				<path class="st16" d="M425.1,211.7l0.1-0.1l2.1-1.2c0.6-0.3,0.9-0.9,1-1.5c0-0.1,0-0.2,0-0.3v-87.2l-2.5,1.5v87.6
					C425.8,211,425.6,211.4,425.1,211.7C425.2,211.6,425.2,211.6,425.1,211.7C425.1,211.7,425.1,211.7,425.1,211.7L425.1,211.7z"/>
			</g>
			<g id="Code">
				<g>
					<path id="XMLID_2979_" class="st17" d="M332.3,79.4l27.2,15.7c0.4,0.2,0.7,0.7,0.7,1.2c0,0.4-0.3,0.6-0.7,0.4l-27.2-15.7
						c-0.4-0.2-0.7-0.7-0.7-1.2C331.6,79.4,331.9,79.2,332.3,79.4z"/>
					<path id="XMLID_2977_" class="st1" d="M342.7,109.5l10.3,5.9c0.4,0.2,0.7,0.7,0.7,1.2c0,0.4-0.3,0.6-0.7,0.4l-10.3-5.9
						c-0.4-0.2-0.7-0.7-0.7-1.2C342,109.4,342.3,109.3,342.7,109.5z"/>
					<path id="XMLID_2971_" class="st1" d="M342.7,115.5l10.3,5.9c0.4,0.2,0.7,0.7,0.7,1.2c0,0.4-0.3,0.6-0.7,0.4l-10.3-5.9
						c-0.4-0.2-0.7-0.7-0.7-1.2C342,115.4,342.3,115.3,342.7,115.5z"/>
					<path id="XMLID_2967_" class="st17" d="M362.2,96.7l54.5,31.4c0.4,0.2,0.7,0.7,0.7,1.2c0,0.4-0.3,0.6-0.7,0.4l-54.5-31.4
						c-0.4-0.2-0.7-0.7-0.7-1.2C361.5,96.6,361.8,96.5,362.2,96.7z"/>
					<path id="XMLID_2926_" class="st10" d="M342.9,151.6l16.6,9.6c0.4,0.2,0.7,0.7,0.7,1.2c0,0.4-0.3,0.6-0.7,0.4l-16.6-9.6
						c-0.4-0.2-0.7-0.7-0.7-1.2C342.2,151.5,342.6,151.4,342.9,151.6z"/>
					<path id="XMLID_2925_" class="st10" d="M362.2,162.8l54.5,31.4c0.4,0.2,0.7,0.7,0.7,1.2c0,0.4-0.3,0.6-0.7,0.4l-54.5-31.4
						c-0.4-0.2-0.7-0.7-0.7-1.2C361.5,162.7,361.8,162.5,362.2,162.8z"/>
					<g id="XMLID_2876_">
						<path id="XMLID_2905_" class="st4" d="M332.3,85.5l13.7,7.9c0.4,0.2,0.7,0.7,0.7,1.2c0,0.4-0.3,0.6-0.7,0.4L332.3,87
							c-0.4-0.2-0.7-0.7-0.7-1.2C331.6,85.4,331.9,85.2,332.3,85.5z"/>
						<path id="XMLID_2890_" class="st5" d="M332.3,85.5l13.7,7.9c0.4,0.2,0.7,0.7,0.7,1.2c0,0.4-0.3,0.6-0.7,0.4L332.3,87
							c-0.4-0.2-0.7-0.7-0.7-1.2C331.6,85.4,331.9,85.2,332.3,85.5z"/>
					</g>
					<g id="XMLID_2873_">
						<path id="XMLID_2875_" class="st4" d="M332.3,91.5l6.4,3.7c0.4,0.2,0.7,0.7,0.7,1.2c0,0.4-0.3,0.6-0.7,0.4l-6.4-3.7
							c-0.4-0.2-0.7-0.7-0.7-1.2C331.6,91.4,331.9,91.2,332.3,91.5z"/>
						<path id="XMLID_2874_" class="st5" d="M332.3,91.5l6.4,3.7c0.4,0.2,0.7,0.7,0.7,1.2c0,0.4-0.3,0.6-0.7,0.4l-6.4-3.7
							c-0.4-0.2-0.7-0.7-0.7-1.2C331.6,91.4,331.9,91.2,332.3,91.5z"/>
					</g>
					<g id="XMLID_2867_">
						<path id="XMLID_2869_" class="st4" d="M332.3,103.5l6.4,3.7c0.4,0.2,0.7,0.7,0.7,1.2c0,0.4-0.3,0.6-0.7,0.4l-6.4-3.7
							c-0.4-0.2-0.7-0.7-0.7-1.2C331.6,103.4,331.9,103.3,332.3,103.5z"/>
						<path id="XMLID_2868_" class="st5" d="M332.3,103.5l6.4,3.7c0.4,0.2,0.7,0.7,0.7,1.2c0,0.4-0.3,0.6-0.7,0.4l-6.4-3.7
							c-0.4-0.2-0.7-0.7-0.7-1.2C331.6,103.4,331.9,103.3,332.3,103.5z"/>
					</g>
					<g id="XMLID_2864_">
						<path id="XMLID_2866_" class="st4" d="M332.3,109.5l6.4,3.7c0.4,0.2,0.7,0.7,0.7,1.2s-0.3,0.6-0.7,0.4l-6.4-3.7
							c-0.4-0.2-0.7-0.7-0.7-1.2S331.9,109.3,332.3,109.5z"/>
						<path id="XMLID_2865_" class="st5" d="M332.3,109.5l6.4,3.7c0.4,0.2,0.7,0.7,0.7,1.2s-0.3,0.6-0.7,0.4l-6.4-3.7
							c-0.4-0.2-0.7-0.7-0.7-1.2S331.9,109.3,332.3,109.5z"/>
					</g>
					<g id="XMLID_2855_">
						<path id="XMLID_2863_" class="st4" d="M348.7,94.9l8.2,4.8c0.4,0.2,0.7,0.7,0.7,1.2c0,0.4-0.3,0.6-0.7,0.4l-8.2-4.8
							c-0.4-0.2-0.7-0.7-0.7-1.2C348,94.8,348.3,94.7,348.7,94.9z"/>
						<path id="XMLID_2862_" class="st5" d="M348.7,94.9l8.2,4.8c0.4,0.2,0.7,0.7,0.7,1.2c0,0.4-0.3,0.6-0.7,0.4l-8.2-4.8
							c-0.4-0.2-0.7-0.7-0.7-1.2C348,94.8,348.3,94.7,348.7,94.9z"/>
					</g>
					<g id="XMLID_2853_">
						<path id="XMLID_2854_" class="st13" d="M361.4,138.3l55.3,31.8c0.4,0.2,0.7,0.7,0.7,1.2c0,0.4-0.3,0.6-0.7,0.4l-55.3-31.8
							c-0.4-0.2-0.7-0.7-0.7-1.2C360.7,138.3,361.1,138.1,361.4,138.3z"/>
					</g>
					<g id="XMLID_2851_">
						<path id="XMLID_2852_" class="st13" d="M408.5,159.4l8.2,4.8c0.4,0.2,0.7,0.7,0.7,1.2s-0.3,0.6-0.7,0.4l-8.2-4.8
							c-0.4-0.2-0.7-0.7-0.7-1.2C407.8,159.3,408.1,159.2,408.5,159.4z"/>
					</g>
					<g id="XMLID_2849_">
						<path id="XMLID_2850_" class="st13" d="M350.5,126l55.3,31.8c0.4,0.2,0.7,0.7,0.7,1.2s-0.3,0.6-0.7,0.4l-55.3-31.8
							c-0.4-0.2-0.7-0.7-0.7-1.2C349.8,125.9,350.1,125.8,350.5,126z"/>
					</g>
					<g id="XMLID_2846_">
						<path id="XMLID_2848_" class="st4" d="M342.7,97.5l13.7,7.9c0.4,0.2,0.7,0.7,0.7,1.2c0,0.4-0.3,0.6-0.7,0.4L342.7,99
							c-0.4-0.2-0.7-0.7-0.7-1.2C342,97.4,342.3,97.2,342.7,97.5z"/>
						<path id="XMLID_2847_" class="st5" d="M342.7,97.5l13.7,7.9c0.4,0.2,0.7,0.7,0.7,1.2c0,0.4-0.3,0.6-0.7,0.4L342.7,99
							c-0.4-0.2-0.7-0.7-0.7-1.2C342,97.4,342.3,97.2,342.7,97.5z"/>
					</g>
					<g id="XMLID_2823_">
						<path id="XMLID_2845_" class="st4" d="M359.1,106.9l57.2,33.1c0.4,0.2,0.7,0.7,0.7,1.2c0,0.4-0.3,0.6-0.7,0.4l-57.2-33.1
							c-0.4-0.2-0.7-0.7-0.7-1.2C358.4,106.8,358.7,106.7,359.1,106.9z"/>
						<path id="XMLID_2839_" class="st17" d="M359.1,106.9l57.2,33.1c0.4,0.2,0.7,0.7,0.7,1.2c0,0.4-0.3,0.6-0.7,0.4l-57.2-33.1
							c-0.4-0.2-0.7-0.7-0.7-1.2C358.4,106.8,358.7,106.7,359.1,106.9z"/>
					</g>
					<path id="XMLID_2978_" class="st1" d="M342.7,133.6l74,42.7c0.4,0.2,0.7,0.7,0.7,1.2s-0.3,0.6-0.7,0.4l-74-42.7
						c-0.4-0.2-0.7-0.7-0.7-1.2C342,133.6,342.3,133.4,342.7,133.6z"/>
					<g id="XMLID_2870_">
						<path id="XMLID_2872_" class="st4" d="M332.3,127.6l6.4,3.7c0.4,0.2,0.7,0.7,0.7,1.2c0,0.4-0.3,0.6-0.7,0.4l-6.4-3.7
							c-0.4-0.2-0.7-0.7-0.7-1.2C331.6,127.6,331.9,127.4,332.3,127.6z"/>
						<path id="XMLID_2871_" class="st5" d="M332.3,127.6l6.4,3.7c0.4,0.2,0.7,0.7,0.7,1.2c0,0.4-0.3,0.6-0.7,0.4l-6.4-3.7
							c-0.4-0.2-0.7-0.7-0.7-1.2C331.6,127.6,331.9,127.4,332.3,127.6z"/>
					</g>
					<path id="XMLID_2986_" class="st1" d="M342.7,139.6l74,42.7c0.4,0.2,0.7,0.7,0.7,1.2c0,0.4-0.3,0.6-0.7,0.4l-74-42.7
						c-0.4-0.2-0.7-0.7-0.7-1.2C342,139.6,342.3,139.4,342.7,139.6z"/>
					<g id="XMLID_2981_">
						<path id="XMLID_2984_" class="st4" d="M332.3,133.6l6.4,3.7c0.4,0.2,0.7,0.7,0.7,1.2c0,0.4-0.3,0.6-0.7,0.4l-6.4-3.7
							c-0.4-0.2-0.7-0.7-0.7-1.2C331.6,133.6,331.9,133.4,332.3,133.6z"/>
						<path id="XMLID_2983_" class="st5" d="M332.3,133.6l6.4,3.7c0.4,0.2,0.7,0.7,0.7,1.2c0,0.4-0.3,0.6-0.7,0.4l-6.4-3.7
							c-0.4-0.2-0.7-0.7-0.7-1.2C331.6,133.6,331.9,133.4,332.3,133.6z"/>
					</g>
					<path id="XMLID_2994_" class="st1" d="M342.7,145.6l74,42.7c0.4,0.2,0.7,0.7,0.7,1.2s-0.3,0.6-0.7,0.4l-74-42.7
						c-0.4-0.2-0.7-0.7-0.7-1.2C342,145.6,342.3,145.4,342.7,145.6z"/>
					<g id="XMLID_2991_">
						<path id="XMLID_2993_" class="st4" d="M332.3,139.6l6.4,3.7c0.4,0.2,0.7,0.7,0.7,1.2c0,0.4-0.3,0.6-0.7,0.4l-6.4-3.7
							c-0.4-0.2-0.7-0.7-0.7-1.2C331.6,139.6,331.9,139.4,332.3,139.6z"/>
						<path id="XMLID_2992_" class="st18" d="M332.3,139.6l6.4,3.7c0.4,0.2,0.7,0.7,0.7,1.2c0,0.4-0.3,0.6-0.7,0.4l-6.4-3.7
							c-0.4-0.2-0.7-0.7-0.7-1.2C331.6,139.6,331.9,139.4,332.3,139.6z"/>
					</g>
				</g>
				<g class="st19">
					<path class="st13" d="M322.3,73.4l3.8,2.2c0.4,0.2,0.7,0.7,0.7,1.2v1.4c0,0.4-0.3,0.6-0.7,0.4l-3.8-2.2
						c-0.4-0.2-0.7-0.7-0.7-1.2l0-1.4C321.6,73.4,321.9,73.2,322.3,73.4z"/>
					<path class="st13" d="M322.3,79.5l3.8,2.2c0.4,0.2,0.7,0.7,0.7,1.2v1.4c0,0.4-0.3,0.6-0.7,0.4l-3.8-2.2
						c-0.4-0.2-0.7-0.7-0.7-1.2l0-1.4C321.6,79.4,321.9,79.3,322.3,79.5z"/>
					<path class="st13" d="M322.3,85.5l3.8,2.2c0.4,0.2,0.7,0.7,0.7,1.2v1.4c0,0.4-0.3,0.6-0.7,0.4l-3.8-2.2
						c-0.4-0.2-0.7-0.7-0.7-1.2l0-1.4C321.6,85.5,321.9,85.3,322.3,85.5z"/>
					<path class="st13" d="M322.3,91.6l3.8,2.2c0.4,0.2,0.7,0.7,0.7,1.2v1.4c0,0.4-0.3,0.6-0.7,0.4l-3.8-2.2
						c-0.4-0.2-0.7-0.7-0.7-1.2l0-1.4C321.6,91.6,321.9,91.4,322.3,91.6z"/>
					<path class="st13" d="M322.3,97.7l3.8,2.2c0.4,0.2,0.7,0.7,0.7,1.2v1.4c0,0.4-0.3,0.6-0.7,0.4l-3.8-2.2
						c-0.4-0.2-0.7-0.7-0.7-1.2l0-1.4C321.6,97.6,321.9,97.5,322.3,97.7z"/>
					<path class="st13" d="M322.3,103.7l3.8,2.2c0.4,0.2,0.7,0.7,0.7,1.2v1.4c0,0.4-0.3,0.6-0.7,0.4l-3.8-2.2
						c-0.4-0.2-0.7-0.7-0.7-1.2l0-1.4C321.6,103.7,321.9,103.5,322.3,103.7z"/>
					<path class="st13" d="M322.3,109.8l3.8,2.2c0.4,0.2,0.7,0.7,0.7,1.2v1.4c0,0.4-0.3,0.6-0.7,0.4l-3.8-2.2
						c-0.4-0.2-0.7-0.8-0.7-1.2l0-1.4C321.6,109.8,321.9,109.6,322.3,109.8z"/>
					<path class="st13" d="M322.3,115.9l3.8,2.2c0.4,0.2,0.7,0.7,0.7,1.2v1.4c0,0.4-0.3,0.6-0.7,0.4l-3.8-2.2
						c-0.4-0.2-0.7-0.7-0.7-1.2l0-1.4C321.6,115.8,321.9,115.6,322.3,115.9z"/>
					<path class="st13" d="M322.3,121.9l3.8,2.2c0.4,0.2,0.7,0.7,0.7,1.2v1.4c0,0.4-0.3,0.6-0.7,0.4l-3.8-2.2
						c-0.4-0.2-0.7-0.7-0.7-1.2l0-1.4C321.6,121.9,321.9,121.7,322.3,121.9z"/>
					<path class="st13" d="M322.3,128l3.8,2.2c0.4,0.2,0.7,0.7,0.7,1.2v1.4c0,0.4-0.3,0.6-0.7,0.4l-3.8-2.2
						c-0.4-0.2-0.7-0.7-0.7-1.2l0-1.4C321.6,128,321.9,127.8,322.3,128z"/>
					<path class="st13" d="M322.3,134.1l3.8,2.2c0.4,0.2,0.7,0.7,0.7,1.2v1.4c0,0.4-0.3,0.6-0.7,0.4l-3.8-2.2
						c-0.4-0.2-0.7-0.7-0.7-1.2l0-1.4C321.6,134,321.9,133.8,322.3,134.1z"/>
					<path class="st13" d="M322.3,140.1l3.8,2.2c0.4,0.2,0.7,0.7,0.7,1.2v1.4c0,0.4-0.3,0.6-0.7,0.4l-3.8-2.2
						c-0.4-0.2-0.7-0.7-0.7-1.2l0-1.4C321.6,140.1,321.9,139.9,322.3,140.1z"/>
				</g>
				<g>
					<path class="st2" d="M297.3,53.7l20.4,11.8c0.8,0.4,1.4,1.5,1.4,2.4l0,23.6c0,0.9-0.6,1.2-1.4,0.8l-20.4-11.8
						c-0.8-0.4-1.4-1.5-1.4-2.4V54.5C295.9,53.6,296.5,53.3,297.3,53.7z"/>
					<g>
						<g>
							<path id="XMLID_2822_" class="st4" d="M299.2,77.1l1.9,1.1c0.4,0.2,0.7,0.7,0.7,1.2c0,0.4-0.3,0.6-0.7,0.4l-1.9-1.1
								c-0.4-0.2-0.7-0.7-0.7-1.2C298.5,77,298.8,76.8,299.2,77.1z"/>
							<path id="XMLID_2821_" class="st18" d="M299.2,77.1l1.9,1.1c0.4,0.2,0.7,0.7,0.7,1.2c0,0.4-0.3,0.6-0.7,0.4l-1.9-1.1
								c-0.4-0.2-0.7-0.7-0.7-1.2C298.5,77,298.8,76.8,299.2,77.1z"/>
						</g>
						<g>
							<path id="XMLID_2820_" class="st4" d="M299.2,57.8l1.9,1.1c0.4,0.2,0.7,0.7,0.7,1.2c0,0.4-0.3,0.6-0.7,0.4l-1.9-1.1
								c-0.4-0.2-0.7-0.7-0.7-1.2C298.5,57.7,298.8,57.6,299.2,57.8z"/>
							<path id="XMLID_529_" class="st18" d="M299.2,57.8l1.9,1.1c0.4,0.2,0.7,0.7,0.7,1.2c0,0.4-0.3,0.6-0.7,0.4l-1.9-1.1
								c-0.4-0.2-0.7-0.7-0.7-1.2C298.5,57.7,298.8,57.6,299.2,57.8z"/>
						</g>
						<g>
							<path class="st4" d="M301.8,63.1l1.9,1.1c0.4,0.2,0.7,0.7,0.7,1.2c0,0.4-0.3,0.6-0.7,0.4l-1.9-1.1c-0.4-0.2-0.7-0.7-0.7-1.2
								C301.1,63.1,301.4,62.9,301.8,63.1z"/>
							<path class="st18" d="M301.8,63.1l1.9,1.1c0.4,0.2,0.7,0.7,0.7,1.2c0,0.4-0.3,0.6-0.7,0.4l-1.9-1.1c-0.4-0.2-0.7-0.7-0.7-1.2
								C301.1,63.1,301.4,62.9,301.8,63.1z"/>
						</g>
						<g>
							<path class="st4" d="M301.8,67l1.9,1.1c0.4,0.2,0.7,0.7,0.7,1.2c0,0.4-0.3,0.6-0.7,0.4l-1.9-1.1c-0.4-0.2-0.7-0.7-0.7-1.2
								C301.1,66.9,301.4,66.8,301.8,67z"/>
							<path class="st18" d="M301.8,67l1.9,1.1c0.4,0.2,0.7,0.7,0.7,1.2c0,0.4-0.3,0.6-0.7,0.4l-1.9-1.1c-0.4-0.2-0.7-0.7-0.7-1.2
								C301.1,66.9,301.4,66.8,301.8,67z"/>
						</g>
						<g>
							<path class="st4" d="M299.2,69.3l1.9,1.1c0.4,0.2,0.7,0.7,0.7,1.2c0,0.4-0.3,0.6-0.7,0.4l-1.9-1.1c-0.4-0.2-0.7-0.7-0.7-1.2
								C298.5,69.3,298.8,69.1,299.2,69.3z"/>
							<path class="st18" d="M299.2,69.3l1.9,1.1c0.4,0.2,0.7,0.7,0.7,1.2c0,0.4-0.3,0.6-0.7,0.4l-1.9-1.1c-0.4-0.2-0.7-0.7-0.7-1.2
								C298.5,69.3,298.8,69.1,299.2,69.3z"/>
						</g>
						<g>
							<path class="st4" d="M301.8,74.7l1.9,1.1c0.4,0.2,0.7,0.7,0.7,1.2c0,0.4-0.3,0.6-0.7,0.4l-1.9-1.1c-0.4-0.2-0.7-0.7-0.7-1.2
								C301.1,74.7,301.4,74.5,301.8,74.7z"/>
							<path class="st18" d="M301.8,74.7l1.9,1.1c0.4,0.2,0.7,0.7,0.7,1.2c0,0.4-0.3,0.6-0.7,0.4l-1.9-1.1c-0.4-0.2-0.7-0.7-0.7-1.2
								C301.1,74.7,301.4,74.5,301.8,74.7z"/>
						</g>
					</g>
					<g>
						<g>
							<path id="XMLID_354_" class="st4" d="M304.3,60.7l11.5,6.6c0.4,0.2,0.7,0.7,0.7,1.2c0,0.4-0.3,0.6-0.7,0.4l-11.5-6.6
								c-0.4-0.2-0.7-0.7-0.7-1.2C303.6,60.7,303.9,60.5,304.3,60.7z"/>
							<path id="XMLID_353_" class="st20" d="M304.3,60.7l11.5,6.6c0.4,0.2,0.7,0.7,0.7,1.2c0,0.4-0.3,0.6-0.7,0.4l-11.5-6.6
								c-0.4-0.2-0.7-0.7-0.7-1.2C303.6,60.7,303.9,60.5,304.3,60.7z"/>
						</g>
						<g>
							<path id="XMLID_352_" class="st4" d="M304.3,80l11.5,6.6c0.4,0.2,0.7,0.7,0.7,1.2s-0.3,0.6-0.7,0.4l-11.5-6.6
								c-0.4-0.2-0.7-0.7-0.7-1.2C303.6,80,303.9,79.8,304.3,80z"/>
							<path id="XMLID_343_" class="st20" d="M304.3,80l11.5,6.6c0.4,0.2,0.7,0.7,0.7,1.2s-0.3,0.6-0.7,0.4l-11.5-6.6
								c-0.4-0.2-0.7-0.7-0.7-1.2C303.6,80,303.9,79.8,304.3,80z"/>
						</g>
						<g>
							<path class="st4" d="M307,66.1l8.8,5.1c0.4,0.2,0.7,0.7,0.7,1.2c0,0.4-0.3,0.6-0.7,0.4l-8.8-5.1c-0.4-0.2-0.7-0.7-0.7-1.2
								C306.3,66.1,306.6,65.9,307,66.1z"/>
							<path class="st20" d="M307,66.1l8.8,5.1c0.4,0.2,0.7,0.7,0.7,1.2c0,0.4-0.3,0.6-0.7,0.4l-8.8-5.1c-0.4-0.2-0.7-0.7-0.7-1.2
								C306.3,66.1,306.6,65.9,307,66.1z"/>
						</g>
						<g>
							<path class="st4" d="M307,70l8.8,5.1c0.4,0.2,0.7,0.7,0.7,1.2c0,0.4-0.3,0.6-0.7,0.4l-8.8-5.1c-0.4-0.2-0.7-0.7-0.7-1.2
								C306.3,69.9,306.6,69.8,307,70z"/>
							<path class="st20" d="M307,70l8.8,5.1c0.4,0.2,0.7,0.7,0.7,1.2c0,0.4-0.3,0.6-0.7,0.4l-8.8-5.1c-0.4-0.2-0.7-0.7-0.7-1.2
								C306.3,69.9,306.6,69.8,307,70z"/>
						</g>
						<g>
							<path class="st4" d="M304.3,72.3l11.5,6.6c0.4,0.2,0.7,0.7,0.7,1.2c0,0.4-0.3,0.6-0.7,0.4l-11.5-6.6
								c-0.4-0.2-0.7-0.7-0.7-1.2C303.6,72.3,303.9,72.1,304.3,72.3z"/>
							<path class="st20" d="M304.3,72.3l11.5,6.6c0.4,0.2,0.7,0.7,0.7,1.2c0,0.4-0.3,0.6-0.7,0.4l-11.5-6.6
								c-0.4-0.2-0.7-0.7-0.7-1.2C303.6,72.3,303.9,72.1,304.3,72.3z"/>
						</g>
						<g>
							<path class="st4" d="M307,77.7l8.8,5.1c0.4,0.2,0.7,0.7,0.7,1.2c0,0.4-0.3,0.6-0.7,0.4l-8.8-5.1c-0.4-0.2-0.7-0.7-0.7-1.2
								C306.3,77.6,306.6,77.5,307,77.7z"/>
							<path class="st20" d="M307,77.7l8.8,5.1c0.4,0.2,0.7,0.7,0.7,1.2c0,0.4-0.3,0.6-0.7,0.4l-8.8-5.1c-0.4-0.2-0.7-0.7-0.7-1.2
								C306.3,77.6,306.6,77.5,307,77.7z"/>
						</g>
					</g>
				</g>
				<g>
					<path class="st2" d="M297.3,84.9l20.4,11.8c0.8,0.4,1.4,1.5,1.4,2.4l0,46.5c0,0.9-0.6,1.2-1.4,0.8l-20.4-11.8
						c-0.8-0.4-1.4-1.5-1.4-2.4V85.7C295.9,84.8,296.5,84.4,297.3,84.9z"/>
					<g>
						<g>
							<path id="XMLID_342_" class="st4" d="M299.2,88.9l1.9,1.1c0.4,0.2,0.7,0.7,0.7,1.2c0,0.4-0.3,0.6-0.7,0.4l-1.9-1.1
								c-0.4-0.2-0.7-0.7-0.7-1.2C298.5,88.9,298.8,88.7,299.2,88.9z"/>
							<path id="XMLID_341_" class="st18" d="M299.2,88.9l1.9,1.1c0.4,0.2,0.7,0.7,0.7,1.2c0,0.4-0.3,0.6-0.7,0.4l-1.9-1.1
								c-0.4-0.2-0.7-0.7-0.7-1.2C298.5,88.9,298.8,88.7,299.2,88.9z"/>
						</g>
						<g>
							<path class="st4" d="M301.8,94.3l1.9,1.1c0.4,0.2,0.7,0.7,0.7,1.2c0,0.4-0.3,0.6-0.7,0.4l-1.9-1.1c-0.4-0.2-0.7-0.7-0.7-1.2
								C301.1,94.2,301.4,94.1,301.8,94.3z"/>
							<path class="st18" d="M301.8,94.3l1.9,1.1c0.4,0.2,0.7,0.7,0.7,1.2c0,0.4-0.3,0.6-0.7,0.4l-1.9-1.1c-0.4-0.2-0.7-0.7-0.7-1.2
								C301.1,94.2,301.4,94.1,301.8,94.3z"/>
						</g>
						<g>
							<path class="st4" d="M301.8,98.1l1.9,1.1c0.4,0.2,0.7,0.7,0.7,1.2c0,0.4-0.3,0.6-0.7,0.4l-1.9-1.1c-0.4-0.2-0.7-0.7-0.7-1.2
								C301.1,98.1,301.4,97.9,301.8,98.1z"/>
							<path class="st18" d="M301.8,98.1l1.9,1.1c0.4,0.2,0.7,0.7,0.7,1.2c0,0.4-0.3,0.6-0.7,0.4l-1.9-1.1c-0.4-0.2-0.7-0.7-0.7-1.2
								C301.1,98.1,301.4,97.9,301.8,98.1z"/>
						</g>
						<g>
							<path class="st4" d="M299.2,100.5l1.9,1.1c0.4,0.2,0.7,0.7,0.7,1.2c0,0.4-0.3,0.6-0.7,0.4l-1.9-1.1c-0.4-0.2-0.7-0.7-0.7-1.2
								C298.5,100.4,298.8,100.3,299.2,100.5z"/>
							<path class="st18" d="M299.2,100.5l1.9,1.1c0.4,0.2,0.7,0.7,0.7,1.2c0,0.4-0.3,0.6-0.7,0.4l-1.9-1.1
								c-0.4-0.2-0.7-0.7-0.7-1.2C298.5,100.4,298.8,100.3,299.2,100.5z"/>
						</g>
					</g>
					<g>
						<g>
							<path id="XMLID_340_" class="st4" d="M304.3,91.9l11.5,6.6c0.4,0.2,0.7,0.7,0.7,1.2c0,0.4-0.3,0.6-0.7,0.4l-11.5-6.6
								c-0.4-0.2-0.7-0.7-0.7-1.2C303.6,91.8,303.9,91.7,304.3,91.9z"/>
							<path id="XMLID_321_" class="st20" d="M304.3,91.9l11.5,6.6c0.4,0.2,0.7,0.7,0.7,1.2c0,0.4-0.3,0.6-0.7,0.4l-11.5-6.6
								c-0.4-0.2-0.7-0.7-0.7-1.2C303.6,91.8,303.9,91.7,304.3,91.9z"/>
						</g>
						<g>
							<path class="st4" d="M307,97.3l8.8,5.1c0.4,0.2,0.7,0.7,0.7,1.2c0,0.4-0.3,0.6-0.7,0.4l-8.8-5.1c-0.4-0.2-0.7-0.7-0.7-1.2
								C306.3,97.2,306.6,97,307,97.3z"/>
							<path class="st20" d="M307,97.3l8.8,5.1c0.4,0.2,0.7,0.7,0.7,1.2c0,0.4-0.3,0.6-0.7,0.4l-8.8-5.1c-0.4-0.2-0.7-0.7-0.7-1.2
								C306.3,97.2,306.6,97,307,97.3z"/>
						</g>
						<g>
							<path class="st4" d="M307,101.1l8.8,5.1c0.4,0.2,0.7,0.7,0.7,1.2c0,0.4-0.3,0.6-0.7,0.4l-8.8-5.1c-0.4-0.2-0.7-0.7-0.7-1.2
								C306.3,101.1,306.6,100.9,307,101.1z"/>
							<path class="st20" d="M307,101.1l8.8,5.1c0.4,0.2,0.7,0.7,0.7,1.2c0,0.4-0.3,0.6-0.7,0.4l-8.8-5.1c-0.4-0.2-0.7-0.7-0.7-1.2
								C306.3,101.1,306.6,100.9,307,101.1z"/>
						</g>
						<g>
							<path class="st4" d="M304.3,103.5l11.5,6.6c0.4,0.2,0.7,0.7,0.7,1.2c0,0.4-0.3,0.6-0.7,0.4l-11.5-6.6
								c-0.4-0.2-0.7-0.7-0.7-1.2C303.6,103.4,303.9,103.2,304.3,103.5z"/>
							<path class="st20" d="M304.3,103.5l11.5,6.6c0.4,0.2,0.7,0.7,0.7,1.2c0,0.4-0.3,0.6-0.7,0.4l-11.5-6.6
								c-0.4-0.2-0.7-0.7-0.7-1.2C303.6,103.4,303.9,103.2,304.3,103.5z"/>
						</g>
						<g>
							<path class="st4" d="M301.8,105.9l1.9,1.1c0.4,0.2,0.7,0.7,0.7,1.2c0,0.4-0.3,0.6-0.7,0.4l-1.9-1.1c-0.4-0.2-0.7-0.7-0.7-1.2
								C301.1,105.8,301.4,105.7,301.8,105.9z"/>
							<path class="st18" d="M301.8,105.9l1.9,1.1c0.4,0.2,0.7,0.7,0.7,1.2c0,0.4-0.3,0.6-0.7,0.4l-1.9-1.1
								c-0.4-0.2-0.7-0.7-0.7-1.2C301.1,105.8,301.4,105.7,301.8,105.9z"/>
						</g>
						<g>
							<path class="st4" d="M301.8,109.7l1.9,1.1c0.4,0.2,0.7,0.7,0.7,1.2c0,0.4-0.3,0.6-0.7,0.4l-1.9-1.1c-0.4-0.2-0.7-0.7-0.7-1.2
								C301.1,109.7,301.4,109.5,301.8,109.7z"/>
							<path class="st18" d="M301.8,109.7l1.9,1.1c0.4,0.2,0.7,0.7,0.7,1.2c0,0.4-0.3,0.6-0.7,0.4l-1.9-1.1
								c-0.4-0.2-0.7-0.7-0.7-1.2C301.1,109.7,301.4,109.5,301.8,109.7z"/>
						</g>
						<g>
							<path class="st4" d="M307,108.9l8.8,5.1c0.4,0.2,0.7,0.7,0.7,1.2c0,0.4-0.3,0.6-0.7,0.4l-8.8-5.1c-0.4-0.2-0.7-0.7-0.7-1.2
								C306.3,108.8,306.6,108.6,307,108.9z"/>
							<path class="st20" d="M307,108.9l8.8,5.1c0.4,0.2,0.7,0.7,0.7,1.2c0,0.4-0.3,0.6-0.7,0.4l-8.8-5.1c-0.4-0.2-0.7-0.7-0.7-1.2
								C306.3,108.8,306.6,108.6,307,108.9z"/>
						</g>
						<g>
							<path class="st4" d="M307,112.7l8.8,5.1c0.4,0.2,0.7,0.7,0.7,1.2s-0.3,0.6-0.7,0.4l-8.8-5.1c-0.4-0.2-0.7-0.7-0.7-1.2
								C306.3,112.7,306.6,112.5,307,112.7z"/>
							<path class="st20" d="M307,112.7l8.8,5.1c0.4,0.2,0.7,0.7,0.7,1.2s-0.3,0.6-0.7,0.4l-8.8-5.1c-0.4-0.2-0.7-0.7-0.7-1.2
								C306.3,112.7,306.6,112.5,307,112.7z"/>
						</g>
						<g>
							<path class="st4" d="M299.2,119.8l1.9,1.1c0.4,0.2,0.7,0.7,0.7,1.2s-0.3,0.6-0.7,0.4l-1.9-1.1c-0.4-0.2-0.7-0.7-0.7-1.2
								C298.5,119.8,298.8,119.6,299.2,119.8z"/>
							<path class="st18" d="M299.2,119.8l1.9,1.1c0.4,0.2,0.7,0.7,0.7,1.2s-0.3,0.6-0.7,0.4l-1.9-1.1c-0.4-0.2-0.7-0.7-0.7-1.2
								C298.5,119.8,298.8,119.6,299.2,119.8z"/>
						</g>
						<g>
							<path class="st4" d="M304.3,122.8l11.5,6.6c0.4,0.2,0.7,0.7,0.7,1.2c0,0.4-0.3,0.6-0.7,0.4l-11.5-6.6
								c-0.4-0.2-0.7-0.7-0.7-1.2S303.9,122.6,304.3,122.8z"/>
							<path class="st20" d="M304.3,122.8l11.5,6.6c0.4,0.2,0.7,0.7,0.7,1.2c0,0.4-0.3,0.6-0.7,0.4l-11.5-6.6
								c-0.4-0.2-0.7-0.7-0.7-1.2S303.9,122.6,304.3,122.8z"/>
						</g>
						<g>
							<path class="st4" d="M301.8,125.2l1.9,1.1c0.4,0.2,0.7,0.7,0.7,1.2c0,0.4-0.3,0.6-0.7,0.4l-1.9-1.1c-0.4-0.2-0.7-0.7-0.7-1.2
								C301.1,125.2,301.4,125,301.8,125.2z"/>
							<path class="st18" d="M301.8,125.2l1.9,1.1c0.4,0.2,0.7,0.7,0.7,1.2c0,0.4-0.3,0.6-0.7,0.4l-1.9-1.1
								c-0.4-0.2-0.7-0.7-0.7-1.2C301.1,125.2,301.4,125,301.8,125.2z"/>
						</g>
						<g>
							<path class="st4" d="M301.8,129.1l1.9,1.1c0.4,0.2,0.7,0.7,0.7,1.2c0,0.4-0.3,0.6-0.7,0.4l-1.9-1.1c-0.4-0.2-0.7-0.7-0.7-1.2
								C301.1,129,301.4,128.9,301.8,129.1z"/>
							<path class="st18" d="M301.8,129.1l1.9,1.1c0.4,0.2,0.7,0.7,0.7,1.2c0,0.4-0.3,0.6-0.7,0.4l-1.9-1.1
								c-0.4-0.2-0.7-0.7-0.7-1.2C301.1,129,301.4,128.9,301.8,129.1z"/>
						</g>
						<g>
							<path class="st4" d="M307,128.2l8.8,5.1c0.4,0.2,0.7,0.7,0.7,1.2c0,0.4-0.3,0.6-0.7,0.4l-8.8-5.1c-0.4-0.2-0.7-0.7-0.7-1.2
								C306.3,128.1,306.6,128,307,128.2z"/>
							<path class="st20" d="M307,128.2l8.8,5.1c0.4,0.2,0.7,0.7,0.7,1.2c0,0.4-0.3,0.6-0.7,0.4l-8.8-5.1c-0.4-0.2-0.7-0.7-0.7-1.2
								C306.3,128.1,306.6,128,307,128.2z"/>
						</g>
						<g>
							<path class="st4" d="M307,132.1l8.8,5.1c0.4,0.2,0.7,0.7,0.7,1.2s-0.3,0.6-0.7,0.4l-8.8-5.1c-0.4-0.2-0.7-0.7-0.7-1.2
								C306.3,132,306.6,131.8,307,132.1z"/>
							<path class="st20" d="M307,132.1l8.8,5.1c0.4,0.2,0.7,0.7,0.7,1.2s-0.3,0.6-0.7,0.4l-8.8-5.1c-0.4-0.2-0.7-0.7-0.7-1.2
								C306.3,132,306.6,131.8,307,132.1z"/>
						</g>
						<g>
							<path class="st4" d="M301.8,113.6l1.9,1.1c0.4,0.2,0.7,0.7,0.7,1.2c0,0.4-0.3,0.6-0.7,0.4l-1.9-1.1c-0.4-0.2-0.7-0.7-0.7-1.2
								C301.1,113.5,301.4,113.3,301.8,113.6z"/>
							<path class="st18" d="M301.8,113.6l1.9,1.1c0.4,0.2,0.7,0.7,0.7,1.2c0,0.4-0.3,0.6-0.7,0.4l-1.9-1.1
								c-0.4-0.2-0.7-0.7-0.7-1.2C301.1,113.5,301.4,113.3,301.8,113.6z"/>
						</g>
						<g>
							<path class="st4" d="M299.2,115.9l1.9,1.1c0.4,0.2,0.7,0.7,0.7,1.2s-0.3,0.6-0.7,0.4l-1.9-1.1c-0.4-0.2-0.7-0.7-0.7-1.2
								C298.5,115.9,298.8,115.7,299.2,115.9z"/>
							<path class="st18" d="M299.2,115.9l1.9,1.1c0.4,0.2,0.7,0.7,0.7,1.2s-0.3,0.6-0.7,0.4l-1.9-1.1c-0.4-0.2-0.7-0.7-0.7-1.2
								C298.5,115.9,298.8,115.7,299.2,115.9z"/>
						</g>
						<g>
							<path class="st4" d="M307,116.6l8.8,5.1c0.4,0.2,0.7,0.7,0.7,1.2c0,0.4-0.3,0.6-0.7,0.4l-8.8-5.1c-0.4-0.2-0.7-0.7-0.7-1.2
								C306.3,116.5,306.6,116.3,307,116.6z"/>
							<path class="st20" d="M307,116.6l8.8,5.1c0.4,0.2,0.7,0.7,0.7,1.2c0,0.4-0.3,0.6-0.7,0.4l-8.8-5.1c-0.4-0.2-0.7-0.7-0.7-1.2
								C306.3,116.5,306.6,116.3,307,116.6z"/>
						</g>
						<g>
							<path class="st4" d="M304.3,118.9l11.5,6.6c0.4,0.2,0.7,0.7,0.7,1.2c0,0.4-0.3,0.6-0.7,0.4l-11.5-6.6
								c-0.4-0.2-0.7-0.7-0.7-1.2C303.6,118.8,303.9,118.7,304.3,118.9z"/>
							<path class="st20" d="M304.3,118.9l11.5,6.6c0.4,0.2,0.7,0.7,0.7,1.2c0,0.4-0.3,0.6-0.7,0.4l-11.5-6.6
								c-0.4-0.2-0.7-0.7-0.7-1.2C303.6,118.8,303.9,118.7,304.3,118.9z"/>
						</g>
						<g>
							<path class="st4" d="M299.2,131.5l1.9,1.1c0.4,0.2,0.7,0.7,0.7,1.2c0,0.4-0.3,0.6-0.7,0.4l-1.9-1.1c-0.4-0.2-0.7-0.7-0.7-1.2
								C298.5,131.4,298.8,131.3,299.2,131.5z"/>
							<path class="st18" d="M299.2,131.5l1.9,1.1c0.4,0.2,0.7,0.7,0.7,1.2c0,0.4-0.3,0.6-0.7,0.4l-1.9-1.1
								c-0.4-0.2-0.7-0.7-0.7-1.2C298.5,131.4,298.8,131.3,299.2,131.5z"/>
						</g>
						<g>
							<path class="st4" d="M304.3,134.5l11.5,6.6c0.4,0.2,0.7,0.7,0.7,1.2s-0.3,0.6-0.7,0.4l-11.5-6.6c-0.4-0.2-0.7-0.7-0.7-1.2
								C303.6,134.4,303.9,134.2,304.3,134.5z"/>
							<path class="st20" d="M304.3,134.5l11.5,6.6c0.4,0.2,0.7,0.7,0.7,1.2s-0.3,0.6-0.7,0.4l-11.5-6.6c-0.4-0.2-0.7-0.7-0.7-1.2
								C303.6,134.4,303.9,134.2,304.3,134.5z"/>
						</g>
					</g>
				</g>
			</g>
		</g>
		<g id="Window_4_">
			<g id="XMLID_3556_">
				<g id="XMLID_3571_" class="st21">
					<path class="st3" d="M410.8,150.3v76.4c0,1,0.7,2.2,1.6,2.7l43.9,25.3c0.2,0.1,0.4,0.2,0.5,0.2c0.1,0,0.1,0,0.2,0
						c0,0,0.1,0,0.1,0c0,0,0.1,0,0.1,0c0,0,0.1,0,0.1-0.1c0,0,0.1,0,0.1-0.1c0.1-0.1,0.2-0.3,0.3-0.4c0.1-0.2,0.2-0.5,0.2-0.8v-76
						c0-1-0.7-2.2-1.6-2.7l-43.9-25.3c-0.4-0.2-0.8-0.3-1.1-0.1c0,0-0.1,0-0.1,0.1c0,0,0,0,0,0c0,0-0.1,0.1-0.1,0.1c0,0,0,0,0,0.1
						c0,0,0,0.1-0.1,0.1c0,0.1-0.1,0.1-0.1,0.2c0,0,0,0.1,0,0.1c0,0,0,0,0,0c0,0,0,0.1,0,0.1C410.8,150.2,410.8,150.2,410.8,150.3z"
						/>
				</g>
				<g id="XMLID_3563_">
					<g id="XMLID_3568_">
						<path class="st10" d="M411.3,149.2c0.3-0.1,0.7-0.1,1.1,0.1l43.9,25.3c0.9,0.5,1.6,1.7,1.6,2.7v5.2l2.5-1.5V176
							c0-1-0.7-2.2-1.6-2.7L414.9,148c-0.5-0.3-0.9-0.3-1.2-0.1C413.5,148,411.6,149.1,411.3,149.2z"/>
					</g>
					<path id="XMLID_3567_" class="st10" d="M410.8,150.3c0-1,0.7-1.4,1.6-0.9l43.9,25.3c0.9,0.5,1.6,1.7,1.6,2.7l0,5.2l-47-27.1
						V150.3z"/>
					<g id="XMLID_3566_" class="st14">
						<path class="st10" d="M412.4,149.4l43.9,25.3c0.4,0.3,0.8,0.7,1.1,1.2l2.5-1.4c-0.3-0.5-0.7-0.9-1.1-1.2L414.9,148
							c-0.5-0.3-0.9-0.3-1.2-0.1c-0.3,0.2-2.1,1.2-2.4,1.4C411.6,149.1,412,149.1,412.4,149.4z"/>
					</g>
				</g>
				<g id="XMLID_3559_">
					<path id="XMLID_3562_" class="st3" d="M455.5,176.8c0.5,0.3,0.9,1.1,0.9,1.9c0,0.8-0.4,1.1-0.9,0.9c-0.5-0.3-0.9-1.1-0.9-1.9
						C454.6,176.9,455,176.5,455.5,176.8z"/>
					<path id="XMLID_3561_" class="st3" d="M452.3,174.9c0.5,0.3,0.9,1.1,0.9,1.9c0,0.8-0.4,1.1-0.9,0.9c-0.5-0.3-0.9-1.1-0.9-1.9
						C451.4,175,451.8,174.7,452.3,174.9z"/>
					<path id="XMLID_3560_" class="st3" d="M449.1,173.1c0.5,0.3,0.9,1.1,0.9,1.9c0,0.8-0.4,1.1-0.9,0.9c-0.5-0.3-0.9-1.1-0.9-1.9
						C448.2,173.2,448.6,172.8,449.1,173.1z"/>
				</g>
				<g id="XMLID_3558_" class="st22">
					<path class="st2" d="M457.3,254.7c0.1,0,0.1-0.1,0.2-0.1c0.1-0.1,0.3-0.2,0.5-0.3l0,0c0.1-0.1,0.2-0.1,0.3-0.2c0,0,0,0,0,0
						c0.1-0.1,0.3-0.2,0.4-0.2c0.1-0.1,0.8-0.4,0.9-0.5c0.1-0.1,0.2-0.1,0.2-0.1c0.1-0.1,0.2-0.1,0.3-0.2c0.1-0.1,0.2-0.2,0.2-0.3
						c0.1-0.2,0.2-0.5,0.2-0.8v-70.8l-2.5,1.5v70.8c0,0.3-0.1,0.6-0.2,0.8c-0.1,0.2-0.2,0.3-0.3,0.4
						C457.4,254.7,457.3,254.7,457.3,254.7C457.3,254.7,457.3,254.7,457.3,254.7z"/>
				</g>
			</g>
			<g id="XMLID_2916_">
				<g id="XMLID_3493_">
					<path id="XMLID_3552_" class="st10" d="M414.4,164.3c0-0.1,0-0.2,0.1-0.2l1.1-1c0,0,0,0,0.1,0c0,0,0,0,0,0c0,0,0.1,0.1,0.1,0.1
						c0,0.1,0,0.1,0,0.2v0.8c0,0.1,0,0.2,0,0.2c0,0,0,0.1-0.1,0.1l-0.6,0.6l0.6,1.2c0,0.1,0.1,0.2,0.1,0.2c0,0.1,0,0.1,0,0.2v0.8
						c0,0.1,0,0.1,0,0.1c0,0-0.1,0-0.1,0c0,0,0,0,0,0c0,0,0,0-0.1-0.1l-1.1-2.4c-0.1-0.1-0.1-0.2-0.1-0.3V164.3z"/>
					<path id="XMLID_3548_" class="st10" d="M418.6,163.1c0-0.1,0-0.1,0.1-0.1c0,0,0.1,0,0.2,0l0.4,0.2c0,0,0.1,0.1,0.1,0.1
						c0,0.1,0,0.1,0,0.2c0,0,0,0,0,0.1l-2,6.1c0,0.1,0,0.1-0.1,0.1c0,0-0.1,0-0.2,0l-0.4-0.2c0,0-0.1-0.1-0.1-0.1c0-0.1,0-0.1,0-0.2
						c0,0,0,0,0-0.1L418.6,163.1z"/>
					<path id="XMLID_3541_" class="st10" d="M421.6,169c0,0.1,0,0.2-0.1,0.2l-1.1,1c0,0,0,0-0.1,0c0,0,0,0,0,0c0,0-0.1-0.1-0.1-0.1
						c0-0.1,0-0.1,0-0.2v-0.8c0-0.1,0-0.2,0-0.2c0,0,0-0.1,0.1-0.1l0.6-0.6l-0.6-1.2c0-0.1-0.1-0.2-0.1-0.2c0-0.1,0-0.1,0-0.2v-0.8
						c0-0.1,0-0.1,0-0.1c0,0,0.1,0,0.1,0c0,0,0,0,0,0c0,0,0,0,0.1,0.1l1.1,2.4c0.1,0.1,0.1,0.2,0.1,0.3V169z"/>
					<path id="XMLID_3522_" class="st10" d="M424.8,172.1c0,0,0.1,0.1,0.1,0.1c0,0.1,0,0.1,0,0.2v0.9c0,0.1,0,0.1,0,0.1
						c0,0-0.1,0-0.1,0l-0.5-0.3c0,0-0.1-0.1-0.1-0.1c0-0.1,0-0.1,0-0.2v-0.9c0-0.1,0-0.1,0-0.1c0,0,0.1,0,0.1,0L424.8,172.1z"/>
					<path id="XMLID_3499_" class="st10" d="M426.6,173.1c0,0,0.1,0.1,0.1,0.1c0,0.1,0,0.1,0,0.2v0.9c0,0.1,0,0.1,0,0.1
						c0,0-0.1,0-0.1,0l-0.5-0.3c0,0-0.1-0.1-0.1-0.1c0-0.1,0-0.1,0-0.2V173c0-0.1,0-0.1,0-0.1c0,0,0.1,0,0.1,0L426.6,173.1z"/>
					<path id="XMLID_3497_" class="st10" d="M428.4,174.2c0,0,0.1,0.1,0.1,0.1c0,0.1,0,0.1,0,0.2v0.9c0,0.1,0,0.1,0,0.1
						c0,0-0.1,0-0.1,0l-0.5-0.3c0,0-0.1-0.1-0.1-0.1c0-0.1,0-0.1,0-0.2V174c0-0.1,0-0.1,0-0.1c0,0,0.1,0,0.1,0L428.4,174.2z"/>
				</g>
				<path id="XMLID_3489_" class="st10" d="M414.9,171.2l26.4,15.2c0.3,0.2,0.6,0.6,0.6,0.9c0,0.3-0.3,0.5-0.6,0.3l-26.4-15.2
					c-0.3-0.2-0.6-0.6-0.6-0.9C414.3,171.1,414.6,171,414.9,171.2z"/>
				<path id="XMLID_3488_" class="st1" d="M423.4,190.7l26.4,15.2c0.3,0.2,0.6,0.6,0.6,0.9s-0.3,0.5-0.6,0.3l-26.4-15.2
					c-0.3-0.2-0.6-0.6-0.6-0.9C422.8,190.7,423.1,190.5,423.4,190.7z"/>
				<path id="XMLID_3480_" class="st1" d="M423.4,200.5l12.6,7.3c0.3,0.2,0.6,0.6,0.6,0.9s-0.3,0.5-0.6,0.3l-12.6-7.3
					c-0.3-0.2-0.6-0.6-0.6-0.9C422.8,200.4,423.1,200.3,423.4,200.5z"/>
				<path id="XMLID_3458_" class="st10" d="M443.5,187.7l10.5,6c0.3,0.2,0.6,0.6,0.6,0.9c0,0.3-0.3,0.5-0.6,0.3l-10.5-6
					c-0.3-0.2-0.6-0.6-0.6-0.9S443.1,187.5,443.5,187.7z"/>
				<path id="XMLID_3455_" class="st10" d="M414.9,224.9l26.4,15.2c0.3,0.2,0.6,0.6,0.6,0.9c0,0.3-0.3,0.5-0.6,0.3l-26.4-15.2
					c-0.3-0.2-0.6-0.6-0.6-0.9C414.3,224.8,414.6,224.7,414.9,224.9z"/>
				<path id="XMLID_3452_" class="st10" d="M443.5,241.4l10.5,6c0.3,0.2,0.6,0.6,0.6,0.9c0,0.3-0.3,0.5-0.6,0.3l-10.5-6
					c-0.3-0.2-0.6-0.6-0.6-0.9C442.9,241.3,443.1,241.2,443.5,241.4z"/>
				<path id="XMLID_3448_" class="st10" d="M443.5,226.7l10.5,6c0.3,0.2,0.6,0.6,0.6,0.9c0,0.3-0.3,0.5-0.6,0.3l-10.5-6
					c-0.3-0.2-0.6-0.6-0.6-0.9C442.9,226.7,443.1,226.6,443.5,226.7z"/>
				<path id="XMLID_3288_" class="st10" d="M443.5,231.6l10.5,6c0.3,0.2,0.6,0.6,0.6,0.9c0,0.3-0.3,0.5-0.6,0.3l-10.5-6
					c-0.3-0.2-0.6-0.6-0.6-0.9C442.9,231.6,443.1,231.4,443.5,231.6z"/>
				<path id="XMLID_3285_" class="st10" d="M434.5,221.6l5.9,3.4c0.3,0.2,0.6,0.6,0.6,0.9c0,0.3-0.3,0.5-0.6,0.3l-5.9-3.4
					c-0.3-0.2-0.6-0.6-0.6-0.9C433.9,221.5,434.2,221.4,434.5,221.6z"/>
				<g id="XMLID_3242_">
					<path id="XMLID_3244_" class="st13" d="M414.9,176.1l15.4,8.9c0.3,0.2,0.6,0.6,0.6,0.9s-0.3,0.5-0.6,0.3l-15.4-8.9
						c-0.3-0.2-0.6-0.6-0.6-0.9C414.3,176,414.6,175.9,414.9,176.1z"/>
				</g>
				<g id="XMLID_3239_">
					<path id="XMLID_3241_" class="st4" d="M414.9,180.9l5.2,3c0.3,0.2,0.6,0.6,0.6,0.9c0,0.3-0.3,0.5-0.6,0.3l-5.2-3
						c-0.3-0.2-0.6-0.6-0.6-0.9C414.3,180.9,414.6,180.8,414.9,180.9z"/>
					<path id="XMLID_3240_" class="st18" d="M414.9,180.9l5.2,3c0.3,0.2,0.6,0.6,0.6,0.9c0,0.3-0.3,0.5-0.6,0.3l-5.2-3
						c-0.3-0.2-0.6-0.6-0.6-0.9C414.3,180.9,414.6,180.8,414.9,180.9z"/>
				</g>
				<g id="XMLID_3236_">
					<path id="XMLID_3238_" class="st4" d="M414.9,185.8l5.2,3c0.3,0.2,0.6,0.6,0.6,0.9s-0.3,0.5-0.6,0.3l-5.2-3
						c-0.3-0.2-0.6-0.6-0.6-0.9C414.3,185.8,414.6,185.6,414.9,185.8z"/>
					<path id="XMLID_3237_" class="st18" d="M414.9,185.8l5.2,3c0.3,0.2,0.6,0.6,0.6,0.9s-0.3,0.5-0.6,0.3l-5.2-3
						c-0.3-0.2-0.6-0.6-0.6-0.9C414.3,185.8,414.6,185.6,414.9,185.8z"/>
				</g>
				<g id="XMLID_3234_">
					<path id="XMLID_3235_" class="st4" d="M414.9,190.7l5.2,3c0.3,0.2,0.6,0.6,0.6,0.9c0,0.3-0.3,0.5-0.6,0.3l-5.2-3
						c-0.3-0.2-0.6-0.6-0.6-0.9C414.3,190.7,414.6,190.5,414.9,190.7z"/>
				</g>
				<path id="XMLID_3233_" class="st18" d="M414.9,190.7l5.2,3c0.3,0.2,0.6,0.6,0.6,0.9c0,0.3-0.3,0.5-0.6,0.3l-5.2-3
					c-0.3-0.2-0.6-0.6-0.6-0.9C414.3,190.7,414.6,190.5,414.9,190.7z"/>
				<path id="XMLID_3232_" class="st23" d="M423.4,195.6l15.4,8.9c0.3,0.2,0.6,0.6,0.6,0.9c0,0.3-0.3,0.5-0.6,0.3l-15.4-8.9
					c-0.3-0.2-0.6-0.6-0.6-0.9C422.8,195.5,423.1,195.4,423.4,195.6z"/>
				<path id="XMLID_3228_" class="st23" d="M440.9,205.7l6.7,3.9c0.3,0.2,0.6,0.6,0.6,0.9c0,0.3-0.3,0.5-0.6,0.3l-6.7-3.9
					c-0.3-0.2-0.6-0.6-0.6-0.9C440.4,205.7,440.6,205.5,440.9,205.7z"/>
				<path id="XMLID_3205_" class="st18" d="M423.4,195.6l15.4,8.9c0.3,0.2,0.6,0.6,0.6,0.9c0,0.3-0.3,0.5-0.6,0.3l-15.4-8.9
					c-0.3-0.2-0.6-0.6-0.6-0.9C422.8,195.5,423.1,195.4,423.4,195.6z"/>
				<path id="XMLID_3204_" class="st18" d="M440.9,205.7l6.7,3.9c0.3,0.2,0.6,0.6,0.6,0.9c0,0.3-0.3,0.5-0.6,0.3l-6.7-3.9
					c-0.3-0.2-0.6-0.6-0.6-0.9C440.4,205.7,440.6,205.5,440.9,205.7z"/>
				<g id="XMLID_3201_">
					<path id="XMLID_3203_" class="st4" d="M414.9,195.6l5.2,3c0.3,0.2,0.6,0.6,0.6,0.9c0,0.3-0.3,0.5-0.6,0.3l-5.2-3
						c-0.3-0.2-0.6-0.6-0.6-0.9C414.3,195.5,414.6,195.4,414.9,195.6z"/>
					<path id="XMLID_3202_" class="st18" d="M414.9,195.6l5.2,3c0.3,0.2,0.6,0.6,0.6,0.9c0,0.3-0.3,0.5-0.6,0.3l-5.2-3
						c-0.3-0.2-0.6-0.6-0.6-0.9C414.3,195.5,414.6,195.4,414.9,195.6z"/>
				</g>
				<g id="XMLID_3198_">
					<path id="XMLID_3200_" class="st13" d="M432.5,186.2l6.7,3.9c0.3,0.2,0.6,0.6,0.6,0.9c0,0.3-0.3,0.5-0.6,0.3l-6.7-3.9
						c-0.3-0.2-0.6-0.6-0.6-0.9C431.9,186.1,432.2,186,432.5,186.2z"/>
				</g>
				<g id="XMLID_3196_">
					<path id="XMLID_3197_" class="st13" d="M429.7,209l15.4,8.9c0.3,0.2,0.6,0.6,0.6,0.9s-0.3,0.5-0.6,0.3l-15.4-8.9
						c-0.3-0.2-0.6-0.6-0.6-0.9C429.2,209,429.4,208.8,429.7,209z"/>
				</g>
				<g id="XMLID_3194_">
					<path id="XMLID_3195_" class="st13" d="M438.6,219l15.4,8.9c0.3,0.2,0.6,0.6,0.6,0.9s-0.3,0.5-0.6,0.3l-15.4-8.9
						c-0.3-0.2-0.6-0.6-0.6-0.9C438,219,438.3,218.9,438.6,219z"/>
				</g>
				<g id="XMLID_3094_">
					<path id="XMLID_3193_" class="st13" d="M447.3,219.1l6.7,3.9c0.3,0.2,0.6,0.6,0.6,0.9c0,0.3-0.3,0.5-0.6,0.3l-6.7-3.9
						c-0.3-0.2-0.6-0.6-0.6-0.9C446.7,219.1,447,219,447.3,219.1z"/>
				</g>
				<g id="XMLID_2998_">
					<path id="XMLID_2999_" class="st1" d="M447.3,238.5l6.7,3.9c0.3,0.2,0.6,0.6,0.6,0.9c0,0.3-0.3,0.5-0.6,0.3l-6.7-3.9
						c-0.3-0.2-0.6-0.6-0.6-0.9C446.7,238.4,447,238.3,447.3,238.5z"/>
				</g>
				<g id="XMLID_2995_">
					<path id="XMLID_2997_" class="st4" d="M423.4,185.8l15.4,8.9c0.3,0.2,0.6,0.6,0.6,0.9c0,0.3-0.3,0.5-0.6,0.3l-15.4-8.9
						c-0.3-0.2-0.6-0.6-0.6-0.9C422.8,185.8,423.1,185.6,423.4,185.8z"/>
					<path id="XMLID_2996_" class="st5" d="M423.4,185.8l15.4,8.9c0.3,0.2,0.6,0.6,0.6,0.9c0,0.3-0.3,0.5-0.6,0.3l-15.4-8.9
						c-0.3-0.2-0.6-0.6-0.6-0.9C422.8,185.8,423.1,185.6,423.4,185.8z"/>
				</g>
				<g id="XMLID_2918_">
					<path id="XMLID_2922_" class="st13" d="M440.9,196l6.7,3.9c0.3,0.2,0.6,0.6,0.6,0.9c0,0.3-0.3,0.5-0.6,0.3l-6.7-3.9
						c-0.3-0.2-0.6-0.6-0.6-0.9C440.4,195.9,440.6,195.8,440.9,196z"/>
				</g>
			</g>
		</g>
		<g id="Mouse_2_">
			<path class="st8" d="M336.1,251.9l9.4,5.4c3,1.7,7.6,1.5,10.4-0.5l15.5-11.4c2.8-2,2.6-5-0.4-6.8l-4.7-2.7
				c-3-1.7-7.9-1.9-10.9-0.3L336.3,246C333.2,247.6,333.1,250.2,336.1,251.9z"/>
			<path class="st2" d="M371.7,240.5l-10.8,8.4l-7.9,6.2c-0.8,0.4-1.7,0.6-2.5,0.6c-1.3,0.1-2.7-0.2-3.8-0.8l-8.4-4.9c0,0,0,0,0,0
				c0,0,0,0,0,0c-3-1.7-3.7-5.7-1.7-8.5c0.1-0.1,0.2-0.2,0.2-0.3c1.6-2.2,4-3.7,6.8-4.3l4.3-0.9c6.9-1.4,12.6-2.1,13.3-1.6
				L371.7,240.5C371.7,240.5,371.7,240.5,371.7,240.5z"/>
			<path class="st10" d="M365.7,245.2l0.6-0.5l-9.5-5.5l8.3-2.6c-0.3-0.2-0.6-0.3-0.8-0.5l-8.3,2.6l-5.7-3.3
				c-0.4,0.1-0.7,0.1-1.1,0.2L365.7,245.2z"/>
			<path class="st9" d="M354,254.6C354,254.6,354,254.6,354,254.6C354,254.6,354,254.6,354,254.6l7.6-5.5l10.2-7.4v-1.2
				c0,0,0-0.1,0-0.1c0,0,0,0-0.1,0c-0.8-0.3-5.2,1.1-10.5,3.2l-3.5,1.4c-1.1,0.4-2.1,1-3,1.8c-2.5,2.1-4.1,5.3-4.1,8.7v0.2
				c0.9,0,1.8-0.2,2.5-0.6L354,254.6z"/>
		</g>
	</g>
</g>
<g id="Plant">
	<g id="Pot_1_">
		<g id="XMLID_3653_">
			<g id="XMLID_3654_">
				<g id="XMLID_3655_">
					<g id="XMLID_3717_">
						<path id="XMLID_3718_" class="st4" d="M372.7,405.5c-10.4-10.7-16.5-54.3-6.4-62.8h51.5c10.1,8.5,4,52.1-6.3,62.8
							c-0.1,0.1-0.2,0.2-0.3,0.3c-0.1,0.1-0.2,0.2-0.4,0.4c-0.3,0.3-0.6,0.6-0.9,0.8c-0.1,0.1-0.2,0.1-0.2,0.2
							c-0.3,0.2-0.5,0.4-0.8,0.6c-0.4,0.3-0.9,0.6-1.3,0.9c-8.5,5-22.4,5-30.9,0l0,0l0,0c-0.5-0.3-0.9-0.6-1.4-0.9
							c-0.3-0.2-0.5-0.4-0.7-0.6c-0.1-0.1-0.2-0.2-0.3-0.2c-0.3-0.3-0.6-0.5-0.9-0.8c-0.1-0.1-0.3-0.3-0.4-0.4
							C372.9,405.7,372.8,405.6,372.7,405.5z"/>
					</g>
					<g id="XMLID_3668_" class="st14">
						<path id="XMLID_3669_" class="st10" d="M372.7,405.5c-10.4-10.7-16.5-54.3-6.4-62.8h51.5c10.1,8.5,4,52.1-6.3,62.8
							c-0.1,0.1-0.2,0.2-0.3,0.3c-0.1,0.1-0.2,0.2-0.4,0.4c-0.3,0.3-0.6,0.6-0.9,0.8c-0.1,0.1-0.2,0.1-0.2,0.2
							c-0.3,0.2-0.5,0.4-0.8,0.6c-0.4,0.3-0.9,0.6-1.3,0.9c-8.5,5-22.4,5-30.9,0l0,0l0,0c-0.5-0.3-0.9-0.6-1.4-0.9
							c-0.3-0.2-0.5-0.4-0.7-0.6c-0.1-0.1-0.2-0.2-0.3-0.2c-0.3-0.3-0.6-0.5-0.9-0.8c-0.1-0.1-0.3-0.3-0.4-0.4
							C372.9,405.7,372.8,405.6,372.7,405.5z"/>
					</g>
					<g id="XMLID_3666_">
						<path id="XMLID_3667_" class="st4" d="M413.4,339.3c11.8,6.9,11.8,18,0,24.8c-11.8,6.9-30.8,6.9-42.6,0
							c-11.8-6.9-11.8-18,0-24.8C382.6,332.4,401.6,332.4,413.4,339.3z"/>
					</g>
					<g id="XMLID_3664_" class="st24">
						<path id="XMLID_3665_" class="st10" d="M413.4,339.3c11.8,6.9,11.8,18,0,24.8c-11.8,6.9-30.8,6.9-42.6,0
							c-11.8-6.9-11.8-18,0-24.8C382.6,332.4,401.6,332.4,413.4,339.3z"/>
					</g>
					<g id="XMLID_3662_">
						<path id="XMLID_3663_" class="st4" d="M407.7,342.6c8.6,5,8.6,13.2,0,18.2c-8.6,5-22.6,5-31.3,0c-8.6-5-8.6-13.2,0-18.2
							C385.1,337.6,399.1,337.6,407.7,342.6z"/>
					</g>
					<g id="XMLID_3660_" class="st25">
						<path id="XMLID_3661_" d="M407.7,342.6c8.6,5,8.6,13.2,0,18.2c-8.6,5-22.6,5-31.3,0c-8.6-5-8.6-13.2,0-18.2
							C385.1,337.6,399.1,337.6,407.7,342.6z"/>
					</g>
					<g id="XMLID_3656_">
						<path id="XMLID_3659_" class="st0" d="M376.5,351.3c8.6-5,22.6-5,31.3,0c2.4,1.4,4.1,3,5.2,4.8c-1.1,1.7-2.8,3.4-5.2,4.8
							c-8.6,5-22.6,5-31.3,0c-2.4-1.4-4.1-3-5.2-4.8C372.4,354.3,374.1,352.7,376.5,351.3z"/>
					</g>
				</g>
			</g>
		</g>
		<g id="Plants_20_">
			<g id="XMLID_3595_">
				<g id="XMLID_3645_">
					<path id="XMLID_3652_" class="st10" d="M387.9,329.3c-0.6-1.2-1.1-2.4-1.3-3.8c-0.6-3.1,0.2-6.7,2.7-8.7c1-0.8,2.3-1.3,2.8-2.5
						c0.2-0.7,0.1-1.4,0-2.1c-0.5-2.7-1.4-5.4-0.6-8.1c0.7-2.4,2.7-4.3,5-5.4c2.3-1.1,4.8-1.5,7.3-1.9c1.3-0.2,2.7-0.4,3.8-1.1
						c1.4-0.8,1.9-2.2,2.8-3.5c1-1.4,2.3-2.6,3.5-3.8c2.6-2.3,5.9-4.3,9.5-4.1c7.6,0.3,7.4,6.9,5.2,11.8c-2.2,4.9-2.8,6.5,2,11.7
						c4.7,5.1,4.7,11.5-0.9,15c-5.6,3.6-9.3,4-7.1,10.9c2,6.1,3.2,11.3-2.4,17.8c-3.6,4.2-8.6,7.2-14.9,7c-1.8-0.1-5.7-0.9-7.3-1.7
						c-1.7-0.9-0.6-2.2-1.1-3.9c-1.2-3.6-2.5-7.3-3.7-10.9c-1-2.8-1.7-5.9-3-8.6C389.4,332.1,388.6,330.7,387.9,329.3z"/>
				</g>
				<g id="XMLID_3643_" class="st26">
					<path id="XMLID_3644_" d="M387.9,329.3c-0.6-1.2-1.1-2.4-1.3-3.8c-0.6-3.1,0.2-6.7,2.7-8.7c1-0.8,2.3-1.3,2.8-2.5
						c0.2-0.7,0.1-1.4,0-2.1c-0.5-2.7-1.4-5.4-0.6-8.1c0.7-2.4,2.7-4.3,5-5.4c2.3-1.1,4.8-1.5,7.3-1.9c1.3-0.2,2.7-0.4,3.8-1.1
						c1.4-0.8,1.9-2.2,2.8-3.5c1-1.4,2.3-2.6,3.5-3.8c2.6-2.3,5.9-4.3,9.5-4.1c7.6,0.3,7.4,6.9,5.2,11.8c-2.2,4.9-2.8,6.5,2,11.7
						c4.7,5.1,4.7,11.5-0.9,15c-5.6,3.6-9.3,4-7.1,10.9c2,6.1,3.2,11.3-2.4,17.8c-3.6,4.2-8.6,7.2-14.9,7c-1.8-0.1-5.7-0.9-7.3-1.7
						c-1.7-0.9-0.6-2.2-1.1-3.9c-1.2-3.6-2.5-7.3-3.7-10.9c-1-2.8-1.7-5.9-3-8.6C389.4,332.1,388.6,330.7,387.9,329.3z"/>
				</g>
				<g id="XMLID_3641_">
					<path id="XMLID_3642_" class="st13" d="M398.2,357c0.2-0.1,0.4-0.3,0.4-0.5c-0.3-37.4,20.3-59.8,20.5-60c0.2-0.2,0.2-0.6,0-0.8
						c-0.2-0.2-0.6-0.2-0.8,0c-0.2,0.2-21.1,22.9-20.8,60.8c0,0.3,0.3,0.6,0.6,0.6C398.1,357,398.1,357,398.2,357z"/>
				</g>
				<g id="XMLID_3598_">
					<path id="XMLID_3640_" class="st13" d="M404.2,322.2c0,0,0.1,0,0.1-0.1c6.7-4.2,18.7-7.4,18.8-7.4c0.3-0.1,0.5-0.4,0.4-0.7
						c-0.1-0.3-0.4-0.5-0.7-0.4c-0.5,0.1-12.3,3.2-19.1,7.5c-0.3,0.2-0.3,0.5-0.2,0.8C403.7,322.2,403.9,322.3,404.2,322.2z"/>
				</g>
				<g id="XMLID_3596_">
					<path id="XMLID_3597_" class="st13" d="M406.3,317C406.3,317,406.3,317,406.3,317c0.3-0.1,0.5-0.5,0.3-0.7
						c-2.3-5.8-6-10.2-6.2-10.4c-0.2-0.2-0.6-0.3-0.8-0.1c-0.2,0.2-0.3,0.6-0.1,0.8c0,0,3.7,4.5,6,10.1
						C405.7,317,406,317.1,406.3,317z"/>
				</g>
			</g>
			<g id="XMLID_3098_">
				<path id="XMLID_3594_" class="st10" d="M392.9,361c0,0-7,2.6-16.4,0.6c-9.4-2-15.2-10.8-15.2-10.8s10.2-4.1,16.1-4.5
					c0,0-9.2-1.6-17.9,0.4c0,0-5.5-2-4.4-11.2c0,0,5.1-3.8,17-2.3c0,0-5.9-4.2-16.3-5.5c-0.8,0,0.3-12,1.3-17.3c1-5.4,3-4.5,7.2-4.1
					c4.2,0.5,16.8,3.3,18.4,6.4c1.6,3.1,0,10.9,0,10.9s3.5-4.3,3.5-10.3c0,0,4.7,1.7,7.3,4c2.5,2.2,3.8,4,4.5,5.7
					c-0.6,4.2-2.6,10.6-5.4,14.2c0,0,6.3-4,7.7-11.5c0,0,5,6.4,5,14.7C405.2,349.7,401,356.7,392.9,361z"/>
				<path id="XMLID_3719_" class="st27" d="M392.9,361c0,0-7,2.6-16.4,0.6c-9.4-2-15.2-10.8-15.2-10.8s10.2-4.1,16.1-4.5
					c0,0-9.2-1.6-17.9,0.4c0,0-5.5-2-4.4-11.2c0,0,5.1-3.8,17-2.3c0,0-5.9-4.2-16.3-5.5c-0.8,0,0.3-12,1.3-17.3c1-5.4,3-4.5,7.2-4.1
					c4.2,0.5,16.8,3.3,18.4,6.4c1.6,3.1,0,10.9,0,10.9s3.5-4.3,3.5-10.3c0,0,4.7,1.7,7.3,4c2.5,2.2,3.8,4,4.5,5.7
					c-0.6,4.2-2.6,10.6-5.4,14.2c0,0,6.3-4,7.7-11.5c0,0,5,6.4,5,14.7C405.2,349.7,401,356.7,392.9,361z"/>
				<g id="XMLID_3578_">
					<path id="XMLID_3579_" class="st13" d="M394.2,360.2c-0.2-0.1-0.3-0.2-0.3-0.5c-1.4-17.9-21.4-45.7-30.2-51.4
						c-0.2-0.2-0.3-0.5-0.2-0.7c0.2-0.3,0.5-0.3,0.7-0.2c9,5.7,29.3,34,30.7,52.2c0,0.3-0.2,0.6-0.5,0.6
						C394.3,360.2,394.2,360.2,394.2,360.2z"/>
				</g>
			</g>
		</g>
	</g>
</g>
<g id="Character">
	<g id="Character_1_">
		<g id="XMLID_179_">
			<g id="XMLID_183_">
				<g id="XMLID_191_">
					<path id="XMLID_192_" class="st28" d="M213.5,349c0-0.2-3.2-11.8-3.2-11.8s1,1.1,7.7-0.7c3.4-0.9,7.3-3.1,7.3-3.1l1.9,8.5
						c1.8,3.3,7.7,1.8,14.2,1c1.1-0.1,2.2-0.3,3.3-0.5l0.1,0c3.5-0.2,7,1.9,3.4,4.9c-3.6,3-9.6,4.1-15.2,5.1
						C226.4,353.7,214.7,355.6,213.5,349z"/>
				</g>
				<g id="XMLID_184_">
					<path id="XMLID_190_" class="st9" d="M260,348c0,0,0.7,1.3,0.5,3.6c-0.1,1.3-3.3,5.7-9,8.4c-5.6,2.7-12.6,2.9-15.9,3.8
						c-3.3,0.9-6.3,2.8-10.1,3.8c-4,1-7.7,1.4-11.5-1.1c-0.7-1.1-1.5-3.6-1.3-3.9C213.4,361.8,260,348,260,348z"/>
					<path id="XMLID_189_" class="st4" d="M228.3,343.1c2.5,1.7,7.6,0.5,13.2-0.1c5.2-0.6,11.1-2.4,14.7-1.2
						c3.6,1.2,6.5,5.4,1.7,10.8c-1.4,1.6-4.3,4.3-6.7,5.1c-6,2.1-11.3,2.3-15.2,3.3c-5,1.2-7.7,3.4-12.4,4c-6,0.7-9.8-0.8-10.8-2.4
						c-1-1.6-2-14.5,0.6-14.2c0,0,1.1,4.2,10.9,0.1C228.5,346.6,228.4,344,228.3,343.1z"/>
					<path id="XMLID_188_" class="st7" d="M228.3,343.1c2.5,1.7,7.6,0.5,13.2-0.1c5.2-0.6,11.1-2.4,14.7-1.2
						c3.6,1.2,6.5,5.4,1.7,10.8c-1.4,1.6-4.3,4.3-6.7,5.1c-6,2.1-11.3,2.3-15.2,3.3c-5,1.2-7.7,3.4-12.4,4c-6,0.7-9.8-0.8-10.8-2.4
						c-1-1.6-2-14.5,0.6-14.2c0,0,1.1,4.2,10.9,0.1C228.5,346.6,228.4,344,228.3,343.1z"/>
					<path id="XMLID_187_" class="st29" d="M244.9,350c0,0-0.6-5.4-4.6-6.9c0,0-1.3-0.6-2.2,0.3c0,0,3.7,0.5,5,6.9
						c0,0,0.2,0.4,1,0.3C244.3,350.6,244.9,350.4,244.9,350z"/>
					<path id="XMLID_186_" class="st29" d="M234.6,343.8c0,0,0-0.2,0.9-0.4c0.7-0.1,1.1,0.1,1.1,0.1s3,1.3,3.6,7c0,0,0,0.7-0.9,0.9
						c-0.9,0.2-1.1-0.6-1.1-0.6S237.6,344.9,234.6,343.8z"/>
					<path id="XMLID_185_" class="st29" d="M231.4,343.9c0,0,0.2-0.3,0.9-0.3c0.9,0,1.1,0.3,1.1,0.3s2.1,2.2,2.2,6.9
						c0,0,0.1,0.8-1,0.9c-1.1,0.1-1-0.8-1-0.8S233.2,344.9,231.4,343.9z"/>
				</g>
			</g>
			<g id="XMLID_180_">
				<g id="XMLID_181_">
					<path id="XMLID_182_" class="st2" d="M209.3,270.2c4.9,14.7,17.9,65.5,17.9,65.5s-8.5,7.6-17.6,4.1l-21.9-63.2L209.3,270.2z"/>
				</g>
			</g>
		</g>
		<g id="XMLID_166_">
			<g id="XMLID_169_">
				<g id="XMLID_177_">
					<path id="XMLID_178_" class="st28" d="M247.1,365.4c-1-1.5-4.8-11.8-4.8-11.8s3.9,2.2,10.7,0.6c3.4-0.8,6.6-4.5,6.6-4.5
						l2.9,9.9c1.7,3.3,7.2,2.2,13.7,1.6c1.1-0.1,2.2-0.3,3.3-0.4l0.1,0c3.5-0.1,7,2.1,3.3,5c-3.7,2.9-9.7,3.9-15.3,4.7
						C261,371.6,250.9,371,247.1,365.4z"/>
				</g>
				<g id="XMLID_170_">
					<path id="XMLID_176_" class="st9" d="M297.6,365.1c0,0,0.7,1.5,0.4,3.8c-0.2,1.4-3.7,6-9.8,8.7c-6.1,2.7-13.6,2.7-17.2,3.7
						c-3.5,0.9-6.8,2.9-11,3.8c-4.3,0.9-8.3,1.3-12.3-1.5c-0.7-1.2-1.5-3.9-1.3-4.2C247.1,378.7,297.6,365.1,297.6,365.1z"/>
					<path id="XMLID_175_" class="st4" d="M263.6,358.9c0.4,0.3,0.8,0.5,1.2,0.8c0.4,0.2,0.9,0.2,1.4,0.3c1.1,0.1,2.2,0.1,3.3,0.1
						c2.7-0.1,5.5-0.5,8.2-0.8c5.6-0.5,12-2.3,15.8-0.9c3.8,1.4,7.2,6,1.9,11.6c-1.5,1.6-4.7,4.4-7.1,5.4c-6.3,2.6-12.8,2.1-17,3.1
						c-5.4,1.2-8.4,3.5-13.4,4c-6.4,0.6-10.5-1.2-11.5-2.9c-0.6-1,0.1-6-0.7-10c-0.7-3.4-0.5-5.7,0.7-5.5c0.2,0.4,0.6,0.8,0.9,1.2
						c0.4,0.5,0.9,0.9,1.4,1.1c0.8,0.4,1.6,0.6,2.4,0.8c1.5,0.4,3,0.7,4.5,0.6c0.4,0,0.9-0.1,1.2-0.4c0.4-0.4,0.6-1,0.7-1.5
						c0.1-0.5,0.2-1,0.3-1.5c0.1-0.3,0.1-0.5,0.3-0.8c0.2-0.3,0.5-0.4,0.8-0.6c0.9-0.5,1.9-1,2.5-1.9c0.4-0.7,0.6-1.5,0.7-2.3
						c0-0.1,0.1-0.3,0.2-0.4c0.2-0.1,0.5,0,0.6,0.1C263.2,358.6,263.4,358.7,263.6,358.9z"/>
					<path id="XMLID_174_" class="st7" d="M263.6,358.9c0.4,0.3,0.8,0.5,1.2,0.8c0.4,0.2,0.9,0.2,1.4,0.3c1.1,0.1,2.2,0.1,3.3,0.1
						c2.7-0.1,5.5-0.5,8.2-0.8c5.6-0.5,12-2.3,15.8-0.9c3.8,1.4,7.2,6,1.9,11.6c-1.5,1.6-4.7,4.4-7.1,5.4c-6.3,2.6-12.8,2.1-17,3.1
						c-5.4,1.2-8.4,3.5-13.4,4c-6.4,0.6-10.5-1.2-11.5-2.9c-0.6-1,0.1-6-0.7-10c-0.7-3.4-0.5-5.7,0.7-5.5c0.2,0.4,0.6,0.8,0.9,1.2
						c0.4,0.5,0.9,0.9,1.4,1.1c0.8,0.4,1.6,0.6,2.4,0.8c1.5,0.4,3,0.7,4.5,0.6c0.4,0,0.9-0.1,1.2-0.4c0.4-0.4,0.6-1,0.7-1.5
						c0.1-0.5,0.2-1,0.3-1.5c0.1-0.3,0.1-0.5,0.3-0.8c0.2-0.3,0.5-0.4,0.8-0.6c0.9-0.5,1.9-1,2.5-1.9c0.4-0.7,0.6-1.5,0.7-2.3
						c0-0.1,0.1-0.3,0.2-0.4c0.2-0.1,0.5,0,0.6,0.1C263.2,358.6,263.4,358.7,263.6,358.9z"/>
					<path id="XMLID_173_" class="st29" d="M281.2,366.8c0,0-0.5-5.9-4.7-7.5c0,0-1.4-0.7-2.4,0.3c0,0,4,0.7,5.1,7.6
						c0,0,0.2,0.5,1.1,0.3C280.6,367.4,281.2,367.3,281.2,366.8z"/>
					<path id="XMLID_172_" class="st29" d="M270.4,359.9c0,0,0-0.2,1-0.4c0.7-0.1,1.2,0.2,1.2,0.2s3.2,1.5,3.6,7.6c0,0,0,0.7-1,0.9
						c-1,0.2-1.1-0.6-1.1-0.6S273.6,361.2,270.4,359.9z"/>
					<path id="XMLID_171_" class="st29" d="M266.9,360c0,0,0.2-0.4,0.9-0.3c1,0,1.2,0.4,1.2,0.4s2.2,2.4,2.1,7.5
						c0,0,0.1,0.9-1.1,0.9c-1.2,0.1-1-0.9-1-0.9S268.8,361.1,266.9,360z"/>
				</g>
			</g>
			<g id="XMLID_167_">
				<path id="XMLID_168_" class="st3" d="M243.8,287.6c3.9,11.9,13.7,45.7,18.2,63c0,0-8.1,7.3-18.5,6.6l-25.1-65.1l10-6.2
					L243.8,287.6z"/>
			</g>
		</g>
		<g id="XMLID_144_">
			<g id="XMLID_164_">
				<path id="XMLID_165_" class="st3" d="M161.2,450c0.9,0,1.6-0.7,1.6-1.6V343.8c0-0.9-0.7-1.6-1.6-1.6c-0.9,0-1.6,0.7-1.6,1.6
					v104.6C159.6,449.3,160.3,450,161.2,450z"/>
			</g>
			<g id="XMLID_162_">
				<path id="XMLID_163_" class="st3" d="M96.5,412c0.6,0,1.3-0.4,1.5-1l32.1-81.2c0.3-0.8-0.1-1.8-0.9-2.1
					c-0.8-0.3-1.8,0.1-2.1,0.9L95,409.7c-0.3,0.8,0.1,1.8,0.9,2.1C96.1,411.9,96.3,412,96.5,412z"/>
			</g>
			<g id="XMLID_160_">
				<path id="XMLID_161_" class="st3" d="M100.4,402.2c0.4,0,0.9-0.2,1.2-0.5l59.7-63.2l59.6,62.9c0.6,0.7,1.6,0.7,2.3,0.1
					c0.7-0.6,0.7-1.6,0.1-2.3l-60.8-64.1c-0.3-0.3-0.7-0.5-1.2-0.5c0,0,0,0,0,0c-0.4,0-0.9,0.2-1.2,0.5l-60.9,64.4
					c-0.6,0.7-0.6,1.7,0.1,2.3C99.6,402.1,100,402.2,100.4,402.2z"/>
			</g>
			<g id="XMLID_158_">
				<path id="XMLID_159_" class="st3" d="M225.9,412c0.2,0,0.4,0,0.6-0.1c0.8-0.3,1.2-1.3,0.9-2.1l-32.1-81.2
					c-0.3-0.8-1.3-1.2-2.1-0.9c-0.8,0.3-1.2,1.3-0.9,2.1l32.1,81.2C224.7,411.6,225.3,412,225.9,412z"/>
			</g>
			<g id="XMLID_156_">
				<path id="XMLID_157_" class="st4" d="M226.7,307.9c1.2-6.6-4.2-11.7-14.2-18.5c-10.1-6.8-22.9-13.5-29.1-16.4
					c-8.4-3.9-17-3.5-27.8,2c-15,7.7-60,35-60,35s67.3,38,80.3,36.3c13-1.7,45.3-22.8,47.9-30.2
					C226.3,308.9,226.7,307.9,226.7,307.9z"/>
			</g>
			<g id="XMLID_154_" class="st30">
				<path id="XMLID_155_" class="st10" d="M226.7,307.9c1.2-6.6-4.2-11.7-14.2-18.5c-10.1-6.8-22.9-13.5-29.1-16.4
					c-8.4-3.9-17-3.5-27.8,2c-15,7.7-60,35-60,35s67.3,38,80.3,36.3c13-1.7,45.3-22.8,47.9-30.2
					C226.3,308.9,226.7,307.9,226.7,307.9z"/>
			</g>
			<g id="XMLID_152_">
				<path id="XMLID_153_" class="st4" d="M169.3,338.4c9.7,8.7,19.8,1.2,35.7-9.2c18.1-11.7,21.6-21.3,21.6-21.3s0,7.2-1.3,10.6
					c-1.3,3.4-4.3,7.2-17.3,16.2c-13,9-22.5,13.5-31.3,15.2l-6.9-1"/>
			</g>
			<path id="XMLID_151_" class="st6" d="M205.1,329.3c18.1-11.7,21.6-21.3,21.6-21.3s0,7.2-1.3,10.6c-1.3,3.4-4.3,7.2-17.3,16.2
				c-13,9-22.5,13.5-31.3,15.2l-6.9-1l-0.5-10.5C179,347.2,189.1,339.7,205.1,329.3z"/>
			<g id="XMLID_149_">
				<path id="XMLID_150_" class="st10" d="M99,399.2l-5,11.4c0,0.1,0,0.2-0.1,0.3c0,0.1,0,0.1,0,0.2c0,0.2,0.3,0.6,0.6,0.8
					c0.7,0.5,1.9,0.5,2.7,0.1c0.3-0.1,0.5-0.3,0.5-0.5c0,0,0,0,0,0l0-0.2l4.6-10.7L99,399.2z"/>
			</g>
			<g id="XMLID_147_">
				<path id="XMLID_148_" class="st10" d="M223.7,399.7l4.2,11.2c0,0.1,0,0.2,0,0.3c0,0.1,0,0.1,0,0.2c0,0.2-0.3,0.5-0.6,0.7
					c-0.7,0.4-1.9,0.4-2.6,0c-0.3-0.2-0.4-0.3-0.5-0.5c0,0,0,0,0,0l0-0.2l-3.9-10.5L223.7,399.7z"/>
			</g>
			<g id="XMLID_145_">
				<path id="XMLID_146_" class="st10" d="M159.4,440.3l0,9.3c0,0.3,0.2,0.6,0.5,0.8c0.7,0.4,1.9,0.4,2.7,0c0.4-0.2,0.5-0.5,0.5-0.8
					v-9.3C161.9,439.7,160.6,439.7,159.4,440.3z"/>
			</g>
		</g>
		<g>
			<g>
				<g id="XMLID_125_">
					<g id="XMLID_128_">
						<path id="XMLID_143_" class="st2" d="M122.5,268.7c3.8,4.5,38.7-5.6,48-6.8c14.9-2,27-3.5,32.1-1.9c5.1,1.6,7.2,4.2,8.8,10.2
							c1.8,7.1,2.8,10.8,2.8,10.8s-24.8,9.5-44.3,11.8C150.3,295.1,122.5,268.7,122.5,268.7z"/>
					</g>
					<g id="XMLID_126_">
						<path id="XMLID_127_" class="st3" d="M116,275.3c-3.9,14.7-7.3,31.9,1.6,41.3c6,6.3,36.3,22.7,55.8,16.3
							c19.2-6.4,59.1-36,63.1-38.9c4-3,7.6-5,7.3-6.3c-5.4-17.8-13.2-19.2-27.8-16c-17.8,3.9-56.9,19.9-56.9,19.9L116,275.3z"/>
					</g>
				</g>
			</g>
			<g>
				<g id="XMLID_122_">
					<g id="XMLID_123_">
						<polygon id="XMLID_124_" class="st28" points="204.5,180.5 191.1,195.7 169.4,185.4 184.6,164.4 						"/>
					</g>
				</g>
				<g id="XMLID_117_">
					<g id="XMLID_120_">
						<path id="XMLID_121_" class="st31" d="M221.2,151.7c0,0,5.5,7.9,4.9,8.8c-0.6,0.8-4.5,1.6-4.5,1.6L221.2,151.7z"/>
					</g>
					<circle class="st32" cx="221.1" cy="150.3" r="6"/>
					<g id="XMLID_118_">
						<path id="XMLID_119_" class="st28" d="M205.9,129.7c10.8,2,14,6.7,15.4,23.7c1.5,17.8-0.2,23.5-2.5,25.9
							c-1.5,1.7-10.3,2.2-14.8,1c-5.6-1.4-18.2-5.6-24.3-14.4c-7.2-10.4-9.3-24.7-2-30.7C187.9,126.7,201.5,128.9,205.9,129.7z"/>
					</g>
					<path class="st31" d="M204.5,180.5c4.7,1.1,11.7,0.4,13.8-0.8c-0.2,0.1-3.5,0.9-7.8-0.3c-4.4-1.2-7.2-3.2-7.2-3.2L204.5,180.5z
						"/>
				</g>
				<g id="XMLID_110_">
					<g id="XMLID_114_">
						<g id="XMLID_115_">
							<path id="XMLID_116_" class="st9" d="M223.3,136.7C223.3,136.7,223.3,136.7,223.3,136.7c-3,2.1-6.7,3-10.4,3.5
								c0.3,2.9-0.6,5.8-1.5,8.5c-0.6,1.9-2.9,7.9-5.3,4.6c-1.8-2.4-3.4-4.6-6.8-4c-5.6,1-6.2,8.1-2.5,12.4c3.6,4.3,6.9,2.5,6.9,2.5
								s0.5,7.7-3.5,13.1c0,0-6.1,3.7-14.6,0.9c-5.4-1.8-13.1-8.5-16-13.8c-7.8-14.5-7.9-28.4,1.6-32.7c0.9-7,6.3-10.2,12.5-11.8
								c8.6-2.2,17.5,3.2,25.8-0.3c1.7-0.7,3.4-1.8,5.1-2.5c1-0.4,2.2-0.6,3.1,0c0.8,0.5,1.1,1.5,1.3,2.4c0.4,1.7,0.5,3.5-0.3,5
								c1.3-0.6,2.5-1.2,3.9-1.4c1.4-0.2,2.9,0,3.9,0.9c1,0.8,1.5,2.1,1.6,3.4C228.6,131.1,226.4,134.6,223.3,136.7z"/>
						</g>
					</g>
					<g id="XMLID_111_">
						<g id="XMLID_112_">
							<path id="XMLID_113_" class="st9" d="M171.2,134.1l-6.5-3.6c1-1.8,3.3-2.4,5.1-1.4C171.6,130,172.2,132.3,171.2,134.1z"/>
						</g>
					</g>
				</g>
				<line class="st33" x1="206.2" y1="153.3" x2="227.1" y2="149.4"/>
			</g>
			<path class="st28" d="M249.9,189.4c-0.6-0.9-1.8-1.1-2.8-1.5c-1.9-0.7-3.4-2.2-5.3-3c-2.1-0.9-4.5-1-6.7-0.4
				c-0.8,0.2-1.5,0.4-2.2,0.7c-1.4,0.5-2.7,1.3-4,2c-5.3,3.1-9.3,10.2-14.5,13.5c-1.9,1.2-3.8,2.3-5.5,3.4l12.4,11.1
				c2.6-2.1,5-4,6.1-4.7c3.1-1.8,6.2-1.9,9.6-2.4c2.4-0.3,4.7-1.1,7-1.8c0.8-0.2,1.7-0.6,2.1-1.3c0.4-1-0.3-2.2-1.3-2.6
				c-1.1-0.4-2.5-0.3-3.6-0.5c-0.9-0.1-3.3,0.4-3.8-0.5c-0.3-0.5,0.1-1.1,0.4-1.5c2.2-2.7,4.9-5.6,8.3-6.4c1.1-0.3,2.2-0.5,3-1.2
				C249.9,191.6,250.4,190.3,249.9,189.4z"/>
			<path class="st10" d="M175.5,177c-13.2-7.2-25.2-2.6-29.6,6.7c-3.9,8.4-12.2,40.8-12.2,40.8C137.7,232,175.5,177,175.5,177z"/>
			<g>
				<path class="st4" d="M173.5,179.6l2-2.6c-14.9-7.1-28.3,2.2-40,20.5c-12.7,19.7-19.3,48-19.4,77.9c0,0,2.5,13.4,19.5,20.1
					c18,7.1,43.1,4.1,50.9-14.6c0,0,0.2-18.6,5.8-27.8c3.7-5.9,12.2-19.1,18.6-28.6c5.5-8.2,9.8-27-1.7-33.8c-3.4-2-4.8-2.6-9.4-4.8
					C189.2,189.4,172.1,183.8,173.5,179.6z"/>
				<path class="st34" d="M173.5,179.7l1.9-2.7c-14.9-7.1-28.3,2.2-40,20.5c-12.7,19.7-19.3,48-19.4,77.9c0,0,2.5,13.4,19.5,20.1
					c18,7.1,43.1,4.1,50.9-14.6c0,0,0.2-18.6,5.8-27.8c3.7-5.9,12.2-19.1,18.6-28.6c5.5-8.2,9.8-27-1.7-33.8c-3.4-2-4.8-2.6-9.4-4.8
					C189.2,189.4,172.2,183.8,173.5,179.7z"/>
				<path class="st35" d="M215.7,212.7c0.8-3.6,1-7.4,0.5-10.9c0,0,0,0,0,0c-2.7,6.3-6.5,12.2-11.3,17.2
					c-6.1,6.4-13.6,11.4-19.2,18.2c-6,7.2-10.2,15.9-15.2,23.7c-2,3.1-4.7,9.2-8.5,9.5c-4.5,0.3-8.9-5.2-11.4-9.1
					c-3.9-6.1-7.3-13.7-12.2-19c-4.3-4.7-10.9-10.7-16.8-7.9h0c-0.4,1.6-0.8,3.1-1.2,4.7c-0.4,1.6-0.8,3.2-1.1,4.8
					c0,0.1,0,0.1,0,0.2c-0.3,1.6-0.6,3.3-0.9,4.9c0,0.1,0,0.2,0,0.3c-0.3,1.6-0.5,3.2-0.8,4.9c-1,7-1.5,14.2-1.5,21.4
					c0,0,2.5,13.4,19.5,20.1c18,7.1,43.1,4.1,50.9-14.6c0,0,0.2-18.6,5.8-27.8c0.6-0.9,1.3-2,2-3.3c0,0,0,0,0,0
					c0-0.1,0.1-0.1,0.1-0.2c0.6-1,1.4-2.1,2.1-3.3c0-0.1,0.1-0.1,0.1-0.2c0,0,0-0.1,0.1-0.1c1.6-2.5,3.4-5.3,5.3-8.2
					c0.3-0.4,0.6-0.9,0.9-1.3c1.8-2.8,3.7-5.6,5.4-8.2c0,0,0,0,0,0c0.6-0.9,1.2-1.8,1.7-2.6c0.2-0.4,0.5-0.7,0.7-1.1c0,0,0,0,0,0
					c0.2-0.3,0.4-0.6,0.6-0.9c0.1-0.1,0.1-0.2,0.2-0.3c0.1-0.2,0.3-0.5,0.4-0.7c0.1-0.1,0.1-0.2,0.2-0.3c0.2-0.3,0.3-0.6,0.4-0.9
					c0-0.1,0.1-0.2,0.1-0.2c0.2-0.4,0.4-0.8,0.6-1.2c0,0,0,0,0,0c0,0,0,0,0-0.1c0.2-0.4,0.3-0.8,0.5-1.1c0-0.1,0.1-0.2,0.1-0.3
					c0.1-0.4,0.3-0.7,0.4-1.1c0,0,0-0.1,0-0.1c0,0,0-0.1,0-0.1c0.2-0.7,0.5-1.4,0.7-2.1c0,0,0,0,0,0
					C215.3,214.2,215.5,213.5,215.7,212.7C215.7,212.7,215.7,212.7,215.7,212.7C215.7,212.7,215.7,212.7,215.7,212.7z"/>
			</g>
			<g>
				<path class="st28" d="M284.9,230.8c-0.9,1.2-2,2.2-3.1,3.2c-4.6,4.1-9.9,6.1-16.1,10.1c-5,3.3-12.7,8-19.2,12
					c-7.3,4.6-16.1,8.3-21,9.7c-6,1.8-9.4,1.9-13-7.8c-1.8-4.8-3.1-9.6-4.7-14.5c-2.3-7.2-4.5-14.4-6.6-21.6c0,0-8-19.8,10-29.8
					c7.8,4.5,10.8,6.3,13.3,15.7c2.9,11.2,7.7,33.4,7.7,33.4c6.4-2.2,12.6-4.9,18.6-7.9c2.3-1.1,5.1-1.9,6.7-4
					c1.1-1.4,2-2.9,2.9-4.5c0.8-1.4,1.3-2.9,2.2-4.2c1.6-2.5,3.8-4.5,5.9-6.5c0.4-0.4,0.9-0.8,1.4-0.8c0.6,0,1.2,0.4,1.5,0.9
					c0.7,1.2,0,2.3-0.3,3.5c-0.4,1.3-0.8,2.7-1.2,4c4.6-2.7,8.5-6.3,11.5-10.8c0.3-0.4,0.5-0.8,0.9-1.1c0.4-0.3,0.9-0.5,1.3-0.5
					c1.2,0.1,2.4,2.1,2.5,3.2c0.1,1.1-0.2,2.3,0.1,3.4c0.3,1,1,1.9,1.3,2.9c0.3,1,0.6,2.2,0.7,3.2c0.3,2.4-0.6,4.7-1.8,6.8
					C285.8,229.6,285.4,230.2,284.9,230.8z"/>
				<path class="st10" d="M210.1,191.3c6.9,2.8,11.8,5.9,14.9,16.4c3.1,10.5,6.5,27.2,6.5,27.2s0.1,3.5-8.3,8.4
					c-8.3,4.9-16.1,2.2-16.1,2.2l-6.3-20.2C200.9,225.3,189.7,198.3,210.1,191.3z"/>
			</g>
		</g>
		<g id="XMLID_105_">
			<path id="XMLID_109_" class="st4" d="M169.9,348.9c-5.5-0.3-9.8-4.3-22.9-9.8c-24.2-10.1-42.3-18.1-49.2-30.8
				c-6.9-12.7-11.8-49.2-10.1-65c0.2-2.1,0.6-3.8,1.2-5.2l-1.7-0.2l4.4-3.7l0,0c4.5-3.7,11.9-0.4,17.4,2.6c15.8,8.6,28.2,17,38,47.2
				c7.4,22.7,12.2,43.4,22.4,54.5"/>
			<path id="XMLID_108_" class="st36" d="M88.9,238.1l-1.7-0.2l4.4-3.7l0,0c4.5-3.7,11.9-0.4,17.4,2.6c15.8,8.6,28.2,17,38,47.2
				c7.2,22.4,12.1,43.3,22.4,54.5l0.5,10.5c-5.5-0.3-9.8-4.3-22.9-9.8c-24.2-10.1-42.3-18.1-49.2-30.8c-6.9-12.7-11.8-49.2-10.1-65
				C88,241.3,88.4,239.5,88.9,238.1z"/>
			<g id="XMLID_106_">
				<path id="XMLID_107_" class="st10" d="M104.4,240.6c15.8,8.6,28.2,17,38,47.2c9.8,30.2,15.1,56.9,34.4,62.1
					c0,0-8.7,3.5-35.4-7.8c-8.5-3.6-18.8-10.1-25.6-13.9c-13.3-7.4-21.3-13.6-22.6-15.8c-7-12.6-11.8-49.2-10.1-65
					C84.9,231.4,96.5,236.3,104.4,240.6z"/>
			</g>
		</g>
	</g>
</g>
<g id="Speech_Bubble">
	<g id="Speech_Bubble_7_">
		<g id="XMLID_3721_">
			<path id="XMLID_3751_" class="st4" d="M193.3,106.7l-4.4-8.2l3.5-10.1v-6.2l-10.8,6.2v6.2l4.6,8c0.1,0.1,0.2,0.2,0.3,0.3l0,0
				L193.3,106.7z"/>
			<path id="XMLID_3749_" class="st37" d="M193.3,106.7l-4.4-8.2l3.5-10.1v-6.2l-10.8,6.2v6.2l4.6,8c0.1,0.1,0.2,0.2,0.3,0.3l0,0
				L193.3,106.7z"/>
			<path id="XMLID_3747_" class="st10" d="M219,32.7c0-2.1-1.4-4.6-3.2-5.6l-2.6-1.5c-1.8-1-4.7-1-6.5,0l-40.3,23.3
				c-1.8,1-3.2,3.5-3.2,5.6v44.3c0,2.1,1.4,4.6,3.2,5.6l2.6,1.5c1.8,1,4.7,1,6.5,0l13-7.5l4.6,8c0.3,0.5,1.1,0.4,1.2-0.1l4.9-14.1
				l16.6-9.6c1.8-1,3.2-3.5,3.2-5.6L219,32.7z"/>
			<path id="XMLID_3727_" class="st37" d="M163.2,98.8c0,2.1,1.4,4.6,3.2,5.6l2.6,1.5c1.6,0.9,4.1,1,5.9,0.3
				c-1.5,0.6-2.7-0.3-2.7-2.1l0-44.3c0-1,0.4-2.2,0.9-3.2l-9.1-5.2c-0.6,1-0.9,2.2-0.9,3.2V98.8z"/>
			<path id="XMLID_3723_" class="st38" d="M218.9,31.8c-0.4-1.4-1.6-1.8-3.1-0.9l-40.3,23.3c-0.9,0.5-1.7,1.4-2.3,2.4l-9.1-5.2
				c0.6-1,1.4-1.9,2.3-2.4l40.3-23.3c1.8-1,4.7-1,6.5,0l2.6,1.5C217.3,28,218.6,30,218.9,31.8z"/>
		</g>
		<g id="_x3C__x2F__x3E__2_">
			<path class="st13" d="M178.2,77.2c0-0.4,0.1-0.7,0.2-0.9c0.1-0.3,0.3-0.5,0.5-0.9l8.8-14.2c0.1-0.1,0.1-0.1,0.1-0.2
				c0,0,0.1-0.1,0.1-0.1c0.1-0.1,0.2-0.1,0.3,0c0.1,0.1,0.1,0.2,0.1,0.4v5.5c0,0.4-0.1,0.8-0.3,1.1c-0.2,0.3-0.3,0.6-0.4,0.7
				l-4.5,6.9l4.5,2.1c0.1,0,0.3,0.1,0.4,0.2c0.2,0.1,0.3,0.4,0.3,0.8v3.9c0,0.2,0,0.4-0.1,0.6c-0.1,0.2-0.2,0.3-0.3,0.4
				c0,0-0.1,0-0.1,0c0,0-0.1,0-0.1,0l-8.8-4c-0.2-0.1-0.4-0.2-0.5-0.3c-0.1-0.1-0.2-0.4-0.2-0.7V77.2z"/>
			<path class="st13" d="M197.3,55.3c0.1-0.3,0.2-0.6,0.3-0.9c0.1-0.3,0.4-0.5,0.6-0.7l2.9-1.7c0.1-0.1,0.2-0.1,0.3,0
				c0.1,0.1,0.1,0.2,0.1,0.4c0,0.1,0,0.2,0,0.3l-7.4,31.5c-0.1,0.3-0.2,0.5-0.3,0.9c-0.1,0.3-0.4,0.5-0.7,0.7l-2.9,1.7
				c-0.1,0.1-0.2,0.1-0.3,0c-0.1-0.1-0.1-0.2-0.1-0.4c0-0.1,0-0.2,0-0.3L197.3,55.3z"/>
			<path class="st13" d="M213.4,60.4c0,0.4-0.1,0.7-0.2,0.9c-0.1,0.3-0.3,0.5-0.5,0.9L204,76.3c-0.1,0.1-0.1,0.1-0.1,0.2
				c0,0-0.1,0.1-0.1,0.1c-0.1,0.1-0.2,0.1-0.3,0c-0.1-0.1-0.1-0.2-0.1-0.4v-5.5c0-0.4,0.1-0.8,0.3-1.1c0.2-0.3,0.3-0.5,0.4-0.7
				l3.8-5.9l-3.8-1.5c-0.1,0-0.3-0.1-0.4-0.2c-0.2-0.1-0.3-0.4-0.3-0.8v-5.5c0-0.2,0-0.4,0.1-0.6c0.1-0.2,0.2-0.3,0.3-0.4
				c0,0,0.1,0,0.1,0c0,0,0.1,0,0.1,0l8.8,4c0.2,0.1,0.4,0.2,0.5,0.3c0.1,0.1,0.2,0.4,0.2,0.7V60.4z"/>
		</g>
	</g>
</g>
<g id="Text_Boxes">
	<g id="Text_Box_6_">
		<g id="_x7B__x7D__3_">
			<g id="Speech_Bubble_6_">
				<g id="Speach_Bubble_5_">
					<g id="XMLID_96_">
						<path id="XMLID_98_" class="st9" d="M96.5,27.2l-53.9,31c-0.7,0.4-1.3,1.5-1.3,2.3v30.1c0,0.9,0.6,1.9,1.3,2.3l5.3,3
							c0.7,0.4,1.9,0.4,2.7,0l53.9-31c0.7-0.4,1.3-1.5,1.3-2.3V32.5c0-0.9-0.6-1.9-1.3-2.3l-5.3-3C98.4,26.8,97.2,26.8,96.5,27.2z"
							/>
						<path id="XMLID_97_" class="st3" d="M105.8,32.3c-0.1-0.7-0.7-0.9-1.3-0.5l-53.9,31c-0.4,0.2-0.7,0.6-0.9,1l-8-4.6
							c0.2-0.4,0.6-0.7,0.9-1l53.9-31c0.7-0.4,1.9-0.4,2.7,0l5.3,3C105.2,30.6,105.7,31.5,105.8,32.3z"/>
						<g>
							<path class="st2" d="M104.5,31.7l-53.9,31c-0.7,0.4-1.3,1.5-1.3,2.3v30.1c0,0.9,0.6,1.2,1.3,0.8l53.9-31
								c0.7-0.4,1.3-1.5,1.3-2.3V32.5C105.8,31.7,105.2,31.3,104.5,31.7z"/>
						</g>
					</g>
				</g>
			</g>
		</g>
		<g>
			<path class="st39" d="M62.6,70.5c0,0.2,0,0.6,0,1c0,0.4,0,0.8,0,1.3s0,0.9,0,1.3c0,0.4,0,0.7,0,1c0,0.4,0.1,0.8,0.2,1.1
				c0.1,0.3,0.2,0.6,0.4,0.8c0.2,0.2,0.4,0.3,0.7,0.3c0.3,0,0.6-0.1,1-0.3c0.4-0.2,0.7-0.5,1-0.8c0.3-0.3,0.5-0.6,0.6-0.9
				c0.2-0.3,0.3-0.6,0.4-0.9c0.1-0.3,0.2-0.6,0.2-0.8c0.1-0.3,0.1-0.6,0.2-0.7c0.1-0.2,0.2-0.3,0.4-0.4l2.3-1.3
				c0.1-0.1,0.2-0.1,0.3,0c0.1,0.1,0.1,0.2,0.1,0.3c0,0.9-0.2,1.8-0.4,2.8c-0.3,1-0.7,1.9-1.1,2.7c-0.5,0.9-1,1.7-1.7,2.4
				c-0.6,0.7-1.4,1.3-2.1,1.7c-0.8,0.5-1.6,0.7-2.2,0.7c-0.6,0-1.2-0.2-1.7-0.6c-0.5-0.4-0.8-0.9-1.1-1.7c-0.2-0.7-0.4-1.6-0.4-2.5
				c0-0.7,0-1.5,0-2.3c0-0.8,0-1.6,0-2.4c0-1,0.2-2,0.4-3c0.3-1,0.6-2,1.1-2.9c0.5-0.9,1-1.8,1.7-2.5c0.7-0.8,1.4-1.4,2.2-1.9
				c0.8-0.4,1.5-0.7,2.1-0.7c0.6,0,1.2,0.1,1.7,0.4c0.5,0.3,0.9,0.8,1.1,1.4c0.3,0.6,0.4,1.4,0.4,2.3c0,0.2,0,0.3-0.1,0.5
				c-0.1,0.2-0.2,0.3-0.3,0.3l-2.3,1.3c-0.2,0.1-0.3,0.1-0.4,0.1C67,67.4,67,67.3,66.9,67c0-0.2-0.1-0.4-0.2-0.6
				c-0.1-0.2-0.2-0.4-0.4-0.5c-0.2-0.1-0.4-0.2-0.6-0.2c-0.3,0-0.6,0.1-1,0.3c-0.4,0.2-0.7,0.5-1,0.8c-0.3,0.3-0.5,0.7-0.7,1.1
				c-0.2,0.4-0.3,0.8-0.4,1.2C62.7,69.7,62.6,70.1,62.6,70.5z"/>
			<path class="st39" d="M77.2,54.7c0.7-0.4,1.4-0.6,2-0.7c0.6,0,1.1,0.1,1.6,0.3c0.4,0.3,0.8,0.6,1,1.1c0.3,0.5,0.4,1,0.4,1.5
				c0,0.2,0,0.3-0.1,0.5c-0.1,0.2-0.2,0.3-0.2,0.3l-2.3,1.3c-0.2,0.1-0.3,0.1-0.4,0.1c-0.1,0-0.2-0.1-0.3-0.1c0,0-0.1-0.1-0.2-0.2
				c-0.1-0.1-0.2-0.1-0.3-0.2c-0.1-0.1-0.3-0.1-0.5,0c-0.2,0-0.5,0.1-0.8,0.3c-0.2,0.1-0.4,0.3-0.6,0.4c-0.2,0.2-0.4,0.3-0.5,0.5
				c-0.2,0.2-0.3,0.4-0.4,0.6c-0.1,0.2-0.1,0.5-0.1,0.7c0,0.3,0.1,0.5,0.2,0.6C75.8,62,76,62,76.3,62c0.3,0,0.6,0,1-0.2
				c0.4-0.1,1-0.2,1.6-0.4c0.6-0.2,1.2-0.2,1.7-0.2c0.5,0,0.9,0.2,1.2,0.4c0.3,0.3,0.5,0.7,0.7,1.2c0.2,0.5,0.2,1.2,0.2,2
				c0,0.9-0.1,1.8-0.4,2.6c-0.3,0.9-0.6,1.7-1.1,2.5c-0.5,0.8-1,1.5-1.7,2.1c-0.6,0.6-1.4,1.2-2.1,1.6c-0.8,0.5-1.5,0.7-2.1,0.8
				c-0.6,0.1-1.2,0-1.7-0.3c-0.5-0.3-0.8-0.6-1.1-1.1C72.2,72.6,72,72,72,71.3c0-0.2,0-0.3,0.1-0.5c0.1-0.2,0.2-0.3,0.3-0.3l2.3-1.3
				c0.2-0.1,0.3-0.1,0.4-0.1c0.1,0,0.2,0,0.3,0.1c0,0,0.1,0.1,0.2,0.2c0.1,0.1,0.2,0.2,0.4,0.3c0.2,0.1,0.3,0.1,0.6,0.1
				c0.2,0,0.5-0.1,0.9-0.3c0.6-0.4,1.1-0.7,1.5-1.2c0.4-0.4,0.6-0.9,0.6-1.5c0-0.3-0.1-0.4-0.2-0.5c-0.1-0.1-0.4-0.1-0.7-0.1
				c-0.3,0-0.7,0.1-1.1,0.2c-0.5,0.1-1,0.3-1.6,0.4c-1.2,0.3-2,0.1-2.6-0.5c-0.5-0.6-0.8-1.7-0.8-3.2c0-0.8,0.1-1.5,0.3-2.4
				c0.2-0.8,0.5-1.6,1-2.4c0.4-0.8,0.9-1.5,1.5-2.1C75.8,55.7,76.5,55.2,77.2,54.7z"/>
			<path class="st39" d="M89.7,47.5c0.7-0.4,1.4-0.6,2-0.7c0.6,0,1.1,0.1,1.6,0.3c0.4,0.3,0.8,0.6,1,1.1c0.3,0.5,0.4,1,0.4,1.5
				c0,0.2,0,0.3-0.1,0.5c-0.1,0.2-0.2,0.3-0.3,0.3l-2.3,1.3C92,52,91.9,52.1,91.8,52c-0.1,0-0.2-0.1-0.3-0.1c0,0-0.1-0.1-0.2-0.2
				c-0.1-0.1-0.2-0.1-0.3-0.2c-0.1-0.1-0.3-0.1-0.5,0c-0.2,0-0.5,0.1-0.8,0.3c-0.2,0.1-0.4,0.3-0.6,0.4c-0.2,0.2-0.4,0.3-0.5,0.5
				c-0.2,0.2-0.3,0.4-0.4,0.6c-0.1,0.2-0.1,0.5-0.1,0.7c0,0.3,0.1,0.5,0.2,0.6c0.1,0.1,0.3,0.2,0.5,0.2c0.3,0,0.6,0,1-0.2
				c0.4-0.1,1-0.2,1.6-0.4c0.6-0.2,1.2-0.2,1.7-0.2c0.5,0,0.9,0.2,1.2,0.4c0.3,0.3,0.6,0.7,0.7,1.2c0.2,0.5,0.2,1.2,0.2,2
				c0,0.9-0.1,1.8-0.4,2.6c-0.3,0.9-0.6,1.7-1.1,2.5c-0.5,0.8-1,1.5-1.7,2.1c-0.6,0.6-1.4,1.2-2.1,1.6c-0.8,0.5-1.5,0.7-2.1,0.8
				c-0.6,0.1-1.2,0-1.7-0.3c-0.5-0.3-0.8-0.6-1.1-1.1c-0.3-0.5-0.4-1.1-0.4-1.7c0-0.2,0-0.3,0.1-0.5c0.1-0.2,0.2-0.3,0.2-0.3
				l2.3-1.3c0.2-0.1,0.3-0.1,0.4-0.1c0.1,0,0.2,0,0.3,0.1c0,0,0.1,0.1,0.2,0.2c0.1,0.1,0.2,0.2,0.4,0.3c0.2,0.1,0.3,0.1,0.6,0.1
				c0.2,0,0.5-0.1,0.9-0.3c0.6-0.4,1.1-0.7,1.5-1.2c0.4-0.4,0.6-0.9,0.6-1.5c0-0.3-0.1-0.4-0.2-0.5c-0.1-0.1-0.4-0.1-0.7-0.1
				c-0.3,0-0.7,0.1-1.1,0.2c-0.5,0.1-1,0.3-1.6,0.4c-1.2,0.3-2,0.1-2.6-0.5c-0.5-0.6-0.8-1.7-0.8-3.2c0-0.8,0.1-1.5,0.3-2.4
				c0.2-0.8,0.5-1.6,1-2.4c0.4-0.8,0.9-1.5,1.5-2.1C88.3,48.5,89,48,89.7,47.5z"/>
		</g>
	</g>
	<g id="Text_Box_2_">
		<g id="_x7B__x7D__2_">
			<g id="Speech_Bubble_5_">
				<g id="Speach_Bubble_4_">
					<g id="XMLID_19_">
						<path id="XMLID_21_" class="st9" d="M96.5,89.7l-53.9,31c-0.7,0.4-1.3,1.5-1.3,2.3v30.1c0,0.9,0.6,1.9,1.3,2.3l5.3,3
							c0.7,0.4,1.9,0.4,2.7,0l53.9-31c0.7-0.4,1.3-1.5,1.3-2.3V95c0-0.9-0.6-1.9-1.3-2.3l-5.3-3C98.4,89.3,97.2,89.3,96.5,89.7z"/>
						<path id="XMLID_20_" class="st3" d="M105.8,94.8c-0.1-0.7-0.7-0.9-1.3-0.5l-53.9,31c-0.4,0.2-0.7,0.6-0.9,1l-8-4.6
							c0.2-0.4,0.6-0.7,0.9-1l53.9-31c0.7-0.4,1.9-0.4,2.7,0l5.3,3C105.2,93.1,105.7,94,105.8,94.8z"/>
						<g>
							<path class="st2" d="M104.5,94.3l-53.9,31c-0.7,0.4-1.3,1.5-1.3,2.3v30.1c0,0.9,0.6,1.2,1.3,0.8l53.9-31
								c0.7-0.4,1.3-1.5,1.3-2.3V95C105.8,94.2,105.2,93.8,104.5,94.3z"/>
						</g>
					</g>
				</g>
			</g>
		</g>
		<g>
			<path class="st39" d="M62.9,125.8c0.1-0.1,0.2-0.1,0.3,0c0.1,0.1,0.1,0.2,0.1,0.4v17.1c0,0.2,0,0.4-0.1,0.6
				c-0.1,0.2-0.2,0.3-0.3,0.4l-2.3,1.3c-0.1,0.1-0.2,0.1-0.3,0c-0.1-0.1-0.1-0.2-0.1-0.4v-6.5l-3.8,2.2v6.5c0,0.2,0,0.4-0.1,0.6
				c-0.1,0.2-0.2,0.3-0.3,0.4l-2.3,1.3c-0.1,0.1-0.2,0.1-0.3,0c-0.1-0.1-0.1-0.2-0.1-0.4v-17.1c0-0.2,0-0.4,0.1-0.6
				c0.1-0.2,0.2-0.3,0.3-0.4l2.3-1.3c0.1-0.1,0.2-0.1,0.3,0c0.1,0.1,0.1,0.2,0.1,0.4v6.4l3.8-2.2v-6.4c0-0.2,0-0.4,0.1-0.6
				c0.1-0.2,0.2-0.3,0.3-0.4L62.9,125.8z"/>
			<path class="st39" d="M75.4,118.6c0.1-0.1,0.2-0.1,0.3,0c0.1,0.1,0.1,0.2,0.1,0.4v2.8c0,0.2,0,0.4-0.1,0.6
				c-0.1,0.2-0.2,0.3-0.3,0.4l-3,1.7v13.6c0,0.2,0,0.4-0.1,0.6c-0.1,0.2-0.2,0.3-0.3,0.4l-2.3,1.3c-0.1,0.1-0.2,0.1-0.3,0
				c-0.1-0.1-0.1-0.2-0.1-0.4v-13.6l-3,1.7c-0.1,0.1-0.2,0.1-0.3,0c-0.1-0.1-0.1-0.2-0.1-0.4v-2.8c0-0.2,0-0.4,0.1-0.6
				c0.1-0.2,0.2-0.3,0.3-0.4L75.4,118.6z"/>
			<path class="st39" d="M83.3,127.9c-0.1-0.1-0.2-0.2-0.2-0.3l-1.6-3.4v8.8c0,0.2,0,0.4-0.1,0.6c-0.1,0.2-0.2,0.3-0.3,0.4l-2.3,1.3
				c-0.1,0.1-0.2,0.1-0.3,0c-0.1-0.1-0.1-0.2-0.1-0.4v-17.1c0-0.2,0-0.4,0.1-0.6c0.1-0.2,0.2-0.3,0.3-0.4l2-1.2
				c0.2-0.1,0.4-0.1,0.5,0c0.1,0.1,0.2,0.2,0.2,0.3l2.8,5.7l2.8-8.9c0-0.1,0.1-0.3,0.2-0.6c0.1-0.3,0.3-0.5,0.5-0.6l2-1.2
				c0.1-0.1,0.2-0.1,0.3,0c0.1,0.1,0.1,0.2,0.1,0.4v17.1c0,0.2,0,0.4-0.1,0.6c-0.1,0.2-0.2,0.3-0.3,0.4l-2.3,1.3
				c-0.1,0.1-0.2,0.1-0.3,0c-0.1-0.1-0.1-0.2-0.1-0.4v-8.8l-1.6,5.3c-0.1,0.2-0.1,0.4-0.2,0.6c-0.1,0.2-0.2,0.4-0.4,0.5l-1.1,0.6
				C83.6,128,83.4,128,83.3,127.9z"/>
			<path class="st39" d="M102,117.5c0.1-0.1,0.2-0.1,0.3,0c0.1,0.1,0.1,0.2,0.1,0.4v2.8c0,0.2,0,0.4-0.1,0.6
				c-0.1,0.2-0.2,0.3-0.3,0.4l-8,4.6c-0.1,0.1-0.2,0.1-0.3,0c-0.1-0.1-0.1-0.2-0.1-0.4v-17.1c0-0.2,0-0.4,0.1-0.6
				c0.1-0.2,0.2-0.3,0.3-0.4l2.3-1.3c0.1-0.1,0.2-0.1,0.3,0c0.1,0.1,0.1,0.2,0.1,0.4v13.6L102,117.5z"/>
		</g>
	</g>
	<g id="Text_Box_1_">
		<g id="_x7B__x7D__1_">
			<g id="Speech_Bubble_1_">
				<g id="Speach_Bubble_3_">
					<g id="XMLID_16_">
						<path id="XMLID_18_" class="st9" d="M96.5,152.2l-53.9,31c-0.7,0.4-1.3,1.5-1.3,2.3v30.1c0,0.9,0.6,1.9,1.3,2.3l5.3,3
							c0.7,0.4,1.9,0.4,2.7,0l53.9-31c0.7-0.4,1.3-1.5,1.3-2.3v-30.1c0-0.9-0.6-1.9-1.3-2.3l-5.3-3
							C98.4,151.8,97.2,151.8,96.5,152.2z"/>
						<path id="XMLID_17_" class="st3" d="M105.8,157.3c-0.1-0.7-0.7-0.9-1.3-0.5l-53.9,31c-0.4,0.2-0.7,0.6-0.9,1l-8-4.6
							c0.2-0.4,0.6-0.7,0.9-1l53.9-31c0.7-0.4,1.9-0.4,2.7,0l5.3,3C105.2,155.6,105.7,156.5,105.8,157.3z"/>
						<g>
							<path class="st2" d="M104.5,156.8l-53.9,31c-0.7,0.4-1.3,1.5-1.3,2.3v30.1c0,0.9,0.6,1.2,1.3,0.8l53.9-31
								c0.7-0.4,1.3-1.5,1.3-2.3v-30.1C105.8,156.7,105.2,156.3,104.5,156.8z"/>
						</g>
					</g>
				</g>
			</g>
		</g>
		<g>
			<path class="st39" d="M63.6,194.9c0,0.2,0,0.6,0,1c0,0.4,0,0.8,0,1.3s0,0.9,0,1.3c0,0.4,0,0.7,0,1c0,0.4,0.1,0.8,0.2,1.1
				c0.1,0.3,0.2,0.6,0.4,0.8c0.2,0.2,0.4,0.3,0.7,0.3c0.3,0,0.6-0.1,1-0.3c0.4-0.2,0.7-0.5,1-0.8c0.3-0.3,0.5-0.6,0.6-0.9
				c0.2-0.3,0.3-0.6,0.4-0.9c0.1-0.3,0.2-0.6,0.2-0.8c0.1-0.3,0.1-0.6,0.2-0.7c0.1-0.2,0.2-0.3,0.4-0.4l2.3-1.3
				c0.1-0.1,0.2-0.1,0.3,0c0.1,0.1,0.1,0.2,0.1,0.3c0,0.9-0.2,1.8-0.4,2.8c-0.3,1-0.7,1.9-1.1,2.7c-0.5,0.9-1,1.7-1.7,2.4
				c-0.6,0.7-1.4,1.3-2.1,1.7c-0.8,0.5-1.6,0.7-2.2,0.7c-0.6,0-1.2-0.2-1.7-0.6c-0.5-0.4-0.8-0.9-1.1-1.7c-0.2-0.7-0.4-1.6-0.4-2.5
				c0-0.7,0-1.5,0-2.3c0-0.8,0-1.6,0-2.4c0-1,0.2-2,0.4-3c0.3-1,0.6-2,1.1-2.9c0.5-0.9,1-1.8,1.7-2.5c0.7-0.8,1.4-1.4,2.2-1.9
				c0.8-0.4,1.5-0.7,2.1-0.7c0.6,0,1.2,0.1,1.7,0.4c0.5,0.3,0.9,0.8,1.1,1.4c0.3,0.6,0.4,1.4,0.4,2.3c0,0.2,0,0.3-0.1,0.5
				c-0.1,0.2-0.2,0.3-0.3,0.3l-2.3,1.3c-0.2,0.1-0.3,0.1-0.4,0.1c-0.1-0.1-0.1-0.2-0.2-0.5c0-0.2-0.1-0.4-0.2-0.6
				c-0.1-0.2-0.2-0.4-0.4-0.5c-0.2-0.1-0.4-0.2-0.6-0.2c-0.3,0-0.6,0.1-1,0.3c-0.4,0.2-0.7,0.5-1,0.8c-0.3,0.3-0.5,0.7-0.7,1.1
				c-0.2,0.4-0.3,0.8-0.4,1.2C63.7,194.1,63.7,194.5,63.6,194.9z"/>
			<path class="st39" d="M79.4,191.4v4.4c0,0.2,0,0.4-0.1,0.6c-0.1,0.2-0.2,0.3-0.3,0.4l-2.2,1.3c-0.1,0.1-0.2,0.1-0.3,0
				c-0.1-0.1-0.1-0.2-0.1-0.4v-4.4l-2.7,1.5c-0.1,0.1-0.2,0.1-0.3,0c-0.1-0.1-0.1-0.2-0.1-0.4v-2.7c0-0.2,0-0.4,0.1-0.6
				c0.1-0.2,0.2-0.3,0.3-0.4l2.7-1.5v-4.4c0-0.2,0-0.4,0.1-0.6c0.1-0.2,0.2-0.3,0.3-0.4l2.2-1.3c0.1-0.1,0.2-0.1,0.3,0
				c0.1,0.1,0.1,0.2,0.1,0.4v4.4l2.7-1.5c0.1-0.1,0.2-0.1,0.3,0c0.1,0.1,0.1,0.2,0.1,0.4v2.7c0,0.2,0,0.4-0.1,0.6
				c-0.1,0.2-0.2,0.3-0.3,0.4L79.4,191.4z"/>
			<path class="st39" d="M90.8,184.8v4.4c0,0.2,0,0.4-0.1,0.6c-0.1,0.2-0.2,0.3-0.3,0.4l-2.2,1.3c-0.1,0.1-0.2,0.1-0.3,0
				c-0.1-0.1-0.1-0.2-0.1-0.4v-4.4l-2.7,1.5c-0.1,0.1-0.2,0.1-0.3,0c-0.1-0.1-0.1-0.2-0.1-0.4V185c0-0.2,0-0.4,0.1-0.6
				c0.1-0.2,0.2-0.3,0.3-0.4l2.7-1.5v-4.4c0-0.2,0-0.4,0.1-0.6c0.1-0.2,0.2-0.3,0.3-0.4l2.2-1.3c0.1-0.1,0.2-0.1,0.3,0
				c0.1,0.1,0.1,0.2,0.1,0.4v4.4l2.7-1.5c0.1-0.1,0.2-0.1,0.3,0c0.1,0.1,0.1,0.2,0.1,0.4v2.7c0,0.2,0,0.4-0.1,0.6
				c-0.1,0.2-0.2,0.3-0.3,0.4L90.8,184.8z"/>
		</g>
	</g>
</g>
</svg>
