<?xml version="1.0" encoding="utf-8"?>
<!-- Generator: Adobe Illustrator 24.0.1, SVG Export Plug-In . SVG Version: 6.00 Build 0)  -->
<svg version="1.1" id="Capa_1" xmlns="http://www.w3.org/2000/svg" xmlns:xlink="http://www.w3.org/1999/xlink" x="0px" y="0px"
	 viewBox="0 0 205 205" style="enable-background:new 0 0 205 205;" xml:space="preserve">
<style type="text/css">
	.st0{fill:#5E17EB;}
</style>
<path class="st0" d="M102.5,205C159,205,205,159,205,102.5S159,0,102.5,0S0,46,0,102.5S46,205,102.5,205z M190,102.5
	c0,48.2-39.3,87.5-87.5,87.5c-9.3,0-18.3-1.5-26.8-4.2l53.6-45.7c2.2-1.6,4.2-3.3,6.1-5.2l0,0l0,0c8.2-8.3,13.2-19.7,13.2-32.3
	c0-12-4.6-22.9-12.1-31.1h47.7C188,81.1,190,91.5,190,102.5z M72.1,109.3c-0.5-2.2-0.8-4.5-0.8-6.8c0-16.9,13.5-30.7,30.3-31.2v0
	h2.6c16.4,0.9,29.4,14.5,29.4,31.1c0,8.3-3.2,15.8-8.5,21.4l-5.2,4.4c-5,3.4-11,5.4-17.5,5.4c-12.7,0-23.6-7.6-28.5-18.5l0,0
	L72.1,109.3z M102.5,15c31.3,0,58.9,16.6,74.3,41.4h-72.1c-0.7,0-1.5-0.1-2.2-0.1c-17.3,0-32.4,9.6-40.3,23.7L47,34.9
	C62.1,22.5,81.4,15,102.5,15z M35.1,46.8l22.5,66.7c4.5,18.3,19.9,32.4,38.9,34.8l-36.2,30.9c-27-14.9-45.4-43.7-45.4-76.7
	C15,81.3,22.6,61.9,35.1,46.8z"/>
</svg>
